<svg xmlns="http://www.w3.org/2000/svg" width="138" height="138" viewBox="0 0 138 138">
  <g id="Grupo_8" data-name="Grupo 8" transform="translate(0 0.26)">
    <path id="Trazado_12" data-name="Trazado 12" d="M69,0c39.777.517,69,30.892,69,69A69,69,0,0,1,0,69V0Z" transform="translate(0 -0.26)" fill="#7d74fc"/>
    <path id="heart-medical" d="M56.1,38.337h-4.5V33.845a4.5,4.5,0,0,0-9.009,0v4.492h-4.5a4.492,4.492,0,1,0,0,8.983h4.5v4.492a4.5,4.5,0,0,0,9.009,0V47.32h4.5a4.492,4.492,0,1,0,0-8.983Zm27.747-26.95a28.393,28.393,0,0,0-36.756-2.65A28.2,28.2,0,0,0,10.33,51.317L37.357,78.492a13.541,13.541,0,0,0,19.1,0L83.482,51.318a28.106,28.106,0,0,0,.36-39.93ZM77.491,44.895,50.465,71.844a4.513,4.513,0,0,1-6.4,0L17.042,44.894a19.084,19.084,0,0,1,27.027-26.95,4.514,4.514,0,0,0,6.4,0,19.115,19.115,0,1,1,27.027,27.04Z" transform="translate(22.012 25.569)" fill="#fff"/>
  </g>
</svg>
