<svg id="google" xmlns="http://www.w3.org/2000/svg" width="30.12" height="30.732" viewBox="0 0 30.12 30.732">
  <path id="Trazado_55" data-name="Trazado 55" d="M17.014,8.111a8.3,8.3,0,0,1,5.873,2.3L27.293,6A14.764,14.764,0,0,0,17.014,2,15.357,15.357,0,0,0,3.285,10.464l5.133,3.98A9.156,9.156,0,0,1,17.014,8.111Z" transform="translate(-1.651 -1.999)" fill="#de483a"/>
  <path id="Trazado_56" data-name="Trazado 56" d="M3.856,7.509a15.382,15.382,0,0,0,0,13.8l5.133-3.98a9.084,9.084,0,0,1,0-5.838Z" transform="translate(-2.222 0.955)" fill="#f9b820"/>
  <path id="Trazado_57" data-name="Trazado 57" d="M22.217,18.767A9.268,9.268,0,0,1,8.418,13.9L3.285,17.88a15.357,15.357,0,0,0,13.729,8.464,14.667,14.667,0,0,0,10.167-3.722Z" transform="translate(-1.651 4.383)" fill="#4f9a62"/>
  <path id="Trazado_58" data-name="Trazado 58" d="M26.691,10.182H12.222v5.943H20.49a7.067,7.067,0,0,1-3.066,4.637l-.015.009.015-.009,4.965,3.855h0A14.983,14.983,0,0,0,26.97,13.324,17.656,17.656,0,0,0,26.691,10.182Z" transform="translate(3.141 2.389)" fill="#4284f4"/>
</svg>
