<svg xmlns="http://www.w3.org/2000/svg" width="500" height="592" viewBox="0 0 500 592">
  <g id="log" transform="translate(0 -0.058)">
    <text id="Welcome_back" data-name="Welcome back" transform="translate(0 54.058)" font-size="48" font-family="TitilliumWeb-Bold, Titillium Web" font-weight="700"><tspan x="0" y="0">Welcome back</tspan></text>
    <text id="Welcome_back_please_enter_your_details." data-name="Welcome back! please enter your details." transform="translate(0 100.058)" fill="#424242" font-size="24" font-family="TitilliumWeb-Light, Titillium Web" font-weight="300"><tspan x="0" y="0">Welcome back! please enter your details.</tspan></text>
    <text id="Email" transform="translate(6 145.058)" font-size="24" font-family="TitilliumWeb-Bold, Titillium Web" font-weight="700"><tspan x="0" y="0">Email</tspan></text>
    <g id="Rectángulo_13" data-name="Rectángulo 13" transform="translate(6 163.059)" fill="#fff" stroke="#707070" stroke-width="1">
      <rect width="494" height="50" rx="25" stroke="none"/>
      <rect x="0.5" y="0.5" width="493" height="49" rx="24.5" fill="none"/>
    </g>
    <text id="Enter_your_email" data-name="Enter your email" transform="translate(29 195.058)" fill="#424242" font-size="20" font-family="TitilliumWeb-Light, Titillium Web" font-weight="300"><tspan x="0" y="0">Enter your email</tspan></text>
    <text id="Password" transform="translate(6 259.058)" font-size="24" font-family="TitilliumWeb-Bold, Titillium Web" font-weight="700"><tspan x="0" y="0">Password</tspan></text>
    <g id="Rectángulo_14" data-name="Rectángulo 14" transform="translate(4 277.059)" fill="#fff" stroke="#707070" stroke-width="1">
      <rect width="494" height="50" rx="25" stroke="none"/>
      <rect x="0.5" y="0.5" width="493" height="49" rx="24.5" fill="none"/>
    </g>
    <text id="_" data-name="***************" transform="translate(28 310.058)" fill="#424242" font-size="20" font-family="TitilliumWeb-Light, Titillium Web" font-weight="300" letter-spacing="0.01em"><tspan x="0" y="0">***************</tspan></text>
    <g id="Rectángulo_15" data-name="Rectángulo 15" transform="translate(6 361.059)" fill="#fff" stroke="#707070" stroke-width="1">
      <rect width="25" height="25" rx="5" stroke="none"/>
      <rect x="0.5" y="0.5" width="24" height="24" rx="4.5" fill="none"/>
    </g>
    <text id="Remember_for_30_days" data-name="Remember for 30 days" transform="translate(41 379.058)" fill="#424242" font-size="16" font-family="TitilliumWeb-Regular, Titillium Web"><tspan x="0" y="0">Remember for 30 days</tspan></text>
    <text id="Forgot_password_" data-name="Forgot password?" transform="translate(376 379.456)" font-size="16" font-family="TitilliumWeb-Bold, Titillium Web" font-weight="700" text-decoration="underline"><tspan x="0" y="0">Forgot password?</tspan></text>
    <rect id="Rectángulo_16" data-name="Rectángulo 16" width="494" height="50" rx="25" transform="translate(6 416.059)" fill="#20bead"/>
    <text id="Sign_in" data-name="Sign in" transform="translate(217.982 448.956)" fill="#fff" font-size="24" font-family="TitilliumWeb-Light, Titillium Web" font-weight="300"><tspan x="0" y="0">Sign in</tspan></text>
    <g id="Grupo_15" data-name="Grupo 15" transform="translate(3.873 480.956)">
      <g id="Trazado_54" data-name="Trazado 54" transform="translate(0)" fill="none">
        <path d="M25.6,0H468.525c14.14,0,25.6,11.193,25.6,25s-11.463,25-25.6,25H25.6C11.463,50,0,38.807,0,25S11.463,0,25.6,0Z" stroke="none"/>
        <path d="M 25.60244750976562 1 C 22.27777099609375 1 19.05328369140625 1.635501861572266 16.01858520507812 2.888874053955078 C 13.08834838867188 4.099124908447266 10.45697021484375 5.831436157226562 8.1973876953125 8.037811279296875 C 5.9395751953125 10.24256134033203 4.167205810546875 12.80918884277344 2.929595947265625 15.66631317138672 C 1.649200439453125 18.62224960327148 1.000030517578125 21.7625617980957 1.000030517578125 25 C 1.000030517578125 28.2374382019043 1.649200439453125 31.37775039672852 2.929595947265625 34.33368682861328 C 4.167205810546875 37.19081115722656 5.9395751953125 39.75743865966797 8.1973876953125 41.96218872070312 C 10.45697021484375 44.16856384277344 13.08834838867188 45.90087509155273 16.01858520507812 47.11112594604492 C 19.05328369140625 48.364501953125 22.27777099609375 49 25.60244750976562 49 L 468.5247802734375 49 C 471.8493957519531 49 475.0738830566406 48.364501953125 478.1085815429688 47.11112594604492 C 481.0387573242188 45.90087509155273 483.6701965332031 44.16856384277344 485.9297180175781 41.96218872070312 C 488.1875915527344 39.75743865966797 489.9599609375 37.19081115722656 491.1975708007812 34.33368682861328 C 492.4779663085938 31.37775039672852 493.1271362304688 28.2374382019043 493.1271362304688 25 C 493.1271362304688 21.7625617980957 492.4779663085938 18.62224960327148 491.1975708007812 15.66631317138672 C 489.9599609375 12.80918884277344 488.1875915527344 10.24256134033203 485.9297180175781 8.037811279296875 C 483.6701965332031 5.831436157226562 481.0387573242188 4.099124908447266 478.1085815429688 2.888874053955078 C 475.0738830566406 1.635501861572266 471.8493957519531 1 468.5247802734375 1 L 25.60244750976562 1 M 25.60244750976562 0 L 468.5247802734375 0 C 482.6645202636719 0 494.1271362304688 11.19287490844727 494.1271362304688 25 C 494.1271362304688 38.80712509155273 482.6645202636719 50 468.5247802734375 50 L 25.60244750976562 50 C 11.46258544921875 50 3.0517578125e-05 38.80712509155273 3.0517578125e-05 25 C 3.0517578125e-05 11.19287490844727 11.46258544921875 0 25.60244750976562 0 Z" stroke="none" fill="#707070"/>
      </g>
      <g id="Grupo_14" data-name="Grupo 14" transform="translate(131.063 7.044)">
        <text id="Sign_in_with_Google" data-name="Sign in with Google" transform="translate(41.065 27.058)" font-size="24" font-family="TitilliumWeb-Light, Titillium Web" font-weight="300"><tspan x="0" y="0">Sign in with Google</tspan></text>
        <g id="google" transform="translate(0 3.956)">
          <path id="Trazado_55" data-name="Trazado 55" d="M17.014,8.111a8.3,8.3,0,0,1,5.873,2.3L27.293,6A14.764,14.764,0,0,0,17.014,2,15.357,15.357,0,0,0,3.285,10.464l5.133,3.98A9.156,9.156,0,0,1,17.014,8.111Z" transform="translate(-1.651 -1.999)" fill="#de483a"/>
          <path id="Trazado_56" data-name="Trazado 56" d="M3.856,7.509a15.382,15.382,0,0,0,0,13.8l5.133-3.98a9.084,9.084,0,0,1,0-5.838Z" transform="translate(-2.222 0.955)" fill="#f9b820"/>
          <path id="Trazado_57" data-name="Trazado 57" d="M22.217,18.767A9.268,9.268,0,0,1,8.418,13.9L3.285,17.88a15.357,15.357,0,0,0,13.729,8.464,14.667,14.667,0,0,0,10.167-3.722Z" transform="translate(-1.651 4.383)" fill="#4f9a62"/>
          <path id="Trazado_58" data-name="Trazado 58" d="M26.691,10.182H12.222v5.943H20.49a7.067,7.067,0,0,1-3.066,4.637l-.015.009.015-.009,4.965,3.855h0A14.983,14.983,0,0,0,26.97,13.324,17.656,17.656,0,0,0,26.691,10.182Z" transform="translate(3.141 2.389)" fill="#4284f4"/>
        </g>
      </g>
    </g>
    <text id="Don_t_have_an_account_Sign_up_for_free" data-name="Don&apos;t have an account? Sign up for free" transform="translate(98 584.058)" fill="#424242" font-size="18" font-family="TitilliumWeb-Light, Titillium Web" font-weight="300" letter-spacing="0.01em"><tspan x="0" y="0">Don&apos;t have an account?</tspan><tspan y="0" font-size="20"> </tspan><tspan y="0" fill="#2b6edd" font-family="TitilliumWeb-Bold, Titillium Web" font-weight="700" text-decoration="underline">Sign up for free</tspan></text>
  </g>
</svg>
