




<svg id="Foreground" xmlns="http://www.w3.org/2000/svg" viewBox="0 0 510.47 297.32"><defs><style>.cls-1{fill:#707070;}
.cls-1,.cls-3,.cls-4{fill-rule:evenodd;}
.cls-2{fill:#707070;}.cls-3{fill:#707070;}
.cls-4{fill:#707070;}</style></defs><path class="cls-1" d="M251.92,292.4q21.59,0,35.42,13.34t13.82,34.16q0,22.05-13.93,36.19t-35.65,14.13q-22.28,0-36-13.51t-13.76-35.44a51.88,51.88,0,0,1,3.62-18.85,45.41,45.41,0,0,1,9.76-15.61,46.13,46.13,0,0,1,16.41-10.52A55.38,55.38,0,0,1,251.92,292.4Zm-4.4,4.52q-16,0-25.44,10.76t-9.42,29q0,20.85,12,35.15t29.58,14.31q16,0,26.44-11.66t10.42-29.54q0-20.58-12.49-34.29A40.37,40.37,0,0,0,247.52,296.92Z" transform="translate(-54.52 -163.86)"/><path class="cls-1" d="M398.09,302.22l2.19,16.57.21,1.73-.21.69a1.28,1.28,0,0,1-1,.69c-.54.05-1.36-.92-2.44-2.88q-12.93-22.53-35-22.53-17.62,0-27.79,10.81t-10.15,29.53q0,21.54,11.3,35.21a36,36,0,0,0,29.07,13.66,41.83,41.83,0,0,0,20.4-5.52q10-5.54,13.9-13.4,1.77-3.66,2.72-3.74c.73,0,1.09.4,1.09,1.33l-.07.76-.28,1.53-1.63,8.48-.28,1.25q-.27,1.78-3.24,3.71a64,64,0,0,1-35.07,10.12q-22.2,0-35.77-13.17T312.4,342.38q0-21.51,14.06-35.75t35.28-14.23A55.56,55.56,0,0,1,388.48,299l2.76,1.45,1.1.48,1.17.41a2,2,0,0,0,1-.55,4.91,4.91,0,0,1,2.08-1.14C397.37,299.6,397.85,300.47,398.09,302.22Z" transform="translate(-54.52 -163.86)"/><path class="cls-1" d="M468,352.39H443.1q-5.1,0-6.34.82c-.83.55-1.93,2.39-3.31,5.5l-4.56,10.1q-3.09,6.94-3.09,10.31t1.63,4.67c1.08,1,3.21,1.79,6.39,2.48,1.39.27,2.1.82,2.15,1.65s-.6,1.17-1.92,1.17c-.51,0-1.29,0-2.34-.07l-6.59-.35q-3.28-.15-7.61-.15a30.25,30.25,0,0,0-3.09.12c-2.33.3-3.62.45-3.84.45-1.24,0-1.86-.43-1.86-1.3a1.47,1.47,0,0,1,1.17-1.52l2.55-.76q1.38-.42,3.72-3.34a31.66,31.66,0,0,0,3.86-6.1l2-4.55,35.41-78.61c.59-1.38,1.25-2.06,2-2.06s1.34.66,1.83,2l29.68,75.84,1.52,3.72q3.22,8.34,5.36,10.38c1.43,1.36,4.31,2.42,8.67,3.2,1.42.27,2.11.83,2.06,1.68s-.69,1.15-1.93,1.15q-.61,0-2.61-.12-3.59-.31-12.73-.31a94.83,94.83,0,0,0-12,.43,12.1,12.1,0,0,1-2.13.28c-1.19,0-1.79-.49-1.79-1.48,0-.76.58-1.25,1.73-1.48l2.15-.49q3.47-.69,3.46-4.68,0-3.65-4.23-14.53L475,357.35c-1-2.53-1.72-4-2.27-4.37S470.61,352.39,468,352.39Zm.83-11.17L458.05,314l-.55-1.44c-.55-1.46-1.15-2.22-1.79-2.26-.33-.05-.69.38-1.11,1.3l-13.43,29.73a8.15,8.15,0,0,0-.9,2.54c0,1.19,1.06,1.79,3.17,1.79l1.86.07h20.81c2.3,0,3.45-.58,3.45-1.72a6.17,6.17,0,0,0-.35-1.58Z" transform="translate(-54.52 -163.86)"/><path class="cls-1" d="M186.27,429.69h23.94a4.88,4.88,0,0,0,2.27-.32c.32-.22.49-.71.49-1.47V414c0-2.79-.37-4.77-1.09-5.93a5.87,5.87,0,0,0-4-2.4c-.81-.16-1.21-.49-1.18-1s.37-.69,1-.69,1.49.06,2.76.18c1.8.16,3.69.24,5.7.24a49.44,49.44,0,0,0,6.11-.25,12.5,12.5,0,0,1,1.5-.17c.66,0,1,.27,1,.81s-.32.72-1,.86l-1.66.36a3.22,3.22,0,0,0-2.1,1.81,7.36,7.36,0,0,0-.85,3.59v39.25q0,4.35,1.22,6t4.65,2c.84.11,1.27.37,1.29.8.06.63-.32.95-1.14.95-.54,0-1.25,0-2.12-.13-.65-.06-2-.1-4.07-.1l-3,0-3.05.05c-.49,0-1.15,0-2,.07-1.69.09-2.62.13-2.81.13-.68,0-1-.23-1-.78s.49-.76,1.39-.89c2.88-.48,4.31-2.81,4.31-7l.05-1.59v-15c0-1.27-.13-2-.37-2.24a4.92,4.92,0,0,0-2.43-.32h-23.9a5.39,5.39,0,0,0-2.88.46c-.38.32-.57,1.11-.57,2.39v15c0,2.83.45,4.81,1.34,6s2.57,1.85,5,2.12c1,.1,1.52.44,1.55,1s-.37.82-1.18.82a18.18,18.18,0,0,1-2-.19,36.9,36.9,0,0,0-4.88-.19l-3.42,0-2.69.1c-.68,0-1.54,0-2.57.13-1.41.13-2.26.19-2.56.19-.68,0-1-.25-1-.74s.35-.77,1.05-.93l2-.49a3.37,3.37,0,0,0,2.43-2.69,33.56,33.56,0,0,0,.65-8v-35q0-3.56-1.34-5.14t-4.81-2.12c-.78-.11-1.18-.4-1.18-.88s.36-.82,1.06-.79q.78,0,2.46.27a62.07,62.07,0,0,0,7.47.4,42,42,0,0,0,5.43-.34,12.34,12.34,0,0,1,1.72-.16c.79,0,1.18.27,1.18.83s-.37.73-1.1.92a6.43,6.43,0,0,0-3.7,2,7.49,7.49,0,0,0-.94,4.31v14.56c0,1.55.15,2.48.46,2.78S184.59,429.69,186.27,429.69Z" transform="translate(-54.52 -163.86)"/><path class="cls-1" d="M261,403.46q12.74,0,20.89,7.87t8.16,20.15q0,13-8.22,21.36t-21,8.34q-13.14,0-21.26-8t-8.12-20.9a30.51,30.51,0,0,1,2.14-11.13,26.75,26.75,0,0,1,5.76-9.21,27.13,27.13,0,0,1,9.68-6.2A32.63,32.63,0,0,1,261,403.46Zm-2.6,2.66q-9.45,0-15,6.36t-5.56,17.1q0,12.3,7.11,20.74t17.45,8.44a20,20,0,0,0,15.6-6.88q6.15-6.87,6.15-17.43,0-12.13-7.37-20.23A23.83,23.83,0,0,0,258.41,406.12Z" transform="translate(-54.52 -163.86)"/><path class="cls-1" d="M314.51,403.46a18.76,18.76,0,0,1,7.38,1.29l2.81,1.19a1.8,1.8,0,0,0,.74.16,1.5,1.5,0,0,0,1-.41l.57-.49a.54.54,0,0,1,.44-.16c.68,0,1,.64,1,2q0,.69.54,4.11l.67,4.2a15.82,15.82,0,0,1,.21,1.67c0,.84-.3,1.26-.89,1.26s-.91-.65-1.36-2a13.72,13.72,0,0,0-5.95-7.31,18.14,18.14,0,0,0-10-2.88,10.69,10.69,0,0,0-7.33,2.6,8.25,8.25,0,0,0-2.94,6.46,9.37,9.37,0,0,0,1.91,5.91,10.75,10.75,0,0,0,3.64,3.1,98.38,98.38,0,0,0,9.71,3.55q15,4.92,15.05,16.15a15.77,15.77,0,0,1-5.55,12.45q-5.55,4.83-14.24,4.84a30,30,0,0,1-6.91-.91,17.51,17.51,0,0,1-5.53-2.09,2.68,2.68,0,0,1-1-1,19.62,19.62,0,0,1-.72-2.81c-.06-.22-.39-1.45-1-3.7a22,22,0,0,1-1.05-5.18c0-.82.28-1.21.84-1.18s.94.69,1.33,2a15.77,15.77,0,0,0,6.16,8.48,17,17,0,0,0,10.23,3.43,14.12,14.12,0,0,0,9.47-3.3,10.21,10.21,0,0,0,3.87-8,9.72,9.72,0,0,0-3.57-7.62q-1.83-1.59-10.56-4.52-9-3.06-12.76-6.76a12.84,12.84,0,0,1-3.76-9.59,13.4,13.4,0,0,1,4.91-10.74Q306.77,403.45,314.51,403.46Z" transform="translate(-54.52 -163.86)"/><path class="cls-1" d="M353.37,410.92V445l-.05,4,.13,3.44q.45,4.94,3.67,5.76a14.13,14.13,0,0,0,3.39.61c.82,0,1.24.24,1.27.72.05.68-.43,1-1.43,1q-.69,0-2.73-.21c-.87-.07-2.28-.1-4.24-.1l-2.9-.11-3.18,0a29.34,29.34,0,0,0-3.63.17,19.84,19.84,0,0,1-2.32.21c-.71,0-1.06-.27-1.06-.8s.45-.82,1.34-.95a5.22,5.22,0,0,0,4.33-3.58q1.16-3.09,1.16-11.13V419.38q0-8.53-1-10.8c-.68-1.5-2.37-2.4-5.09-2.7-.73-.06-1.08-.34-1.05-.85s.55-1,1.58-1a13.55,13.55,0,0,1,2.07.21,30.45,30.45,0,0,0,4.23.38c1.73,0,4.25-.16,7.56-.46,1.71-.14,3.1-.21,4.18-.21q8.51,0,13.8,4.08a12.85,12.85,0,0,1,5.3,10.68,14.57,14.57,0,0,1-6.5,12.56,17.73,17.73,0,0,1-10.32,3.41,18.11,18.11,0,0,1-4.69-.56c-1.43-.37-2.11-.77-2.06-1.19s.31-.49.77-.49a3.44,3.44,0,0,1,.81.12,11.21,11.21,0,0,0,3,.29,13.25,13.25,0,0,0,9.33-3.23,11.12,11.12,0,0,0,3.5-8.58,13,13,0,0,0-4.61-10.21,17,17,0,0,0-11.68-4,3.17,3.17,0,0,0-2.22.61,3.38,3.38,0,0,0-.6,2.33Z" transform="translate(-54.52 -163.86)"/><path class="cls-1" d="M397.36,416.43V446.9c0,3.8.23,6.32.69,7.54a6.31,6.31,0,0,0,2,2.93,8.74,8.74,0,0,0,3.76,1.22c1.36.19,2,.51,2,1,0,.63-.43.94-1.27.94a11.43,11.43,0,0,1-1.55-.14,35.15,35.15,0,0,0-4.32-.18l-5.9-.1-4.81.29a17.7,17.7,0,0,1-2,.13c-.73,0-1.1-.28-1.1-.83s.42-.79,1.27-.92c2.06-.35,3.4-1.06,4-2.14s.89-3.32.89-6.77V415c0-3.37-.38-5.63-1.16-6.8s-2.42-2-4.95-2.36c-.84-.15-1.27-.47-1.3-.95s.37-.88,1.18-.88a6.72,6.72,0,0,1,.73,0,66.31,66.31,0,0,0,7.9.37c2,0,3.73,0,5.17-.14l2.73-.23,1,0c.74,0,1.1.26,1.1.76s-.35.84-1,1.07l-2.11.82Q397.36,407.83,397.36,416.43Z" transform="translate(-54.52 -163.86)"/><path class="cls-1" d="M452.07,408.79H440.63a3.36,3.36,0,0,0-2.26.49,3.87,3.87,0,0,0-.47,2.41v40l0,1.59c.13,3.18,1.92,5.07,5.35,5.67,1,.15,1.44.45,1.44.89s-.38.86-1.15.86a16.92,16.92,0,0,1-2-.25,29.61,29.61,0,0,0-3.68-.13l-3,0-3.18,0a26.29,26.29,0,0,0-2.9.13c-1.55.16-2.46.25-2.73.25-.82,0-1.23-.29-1.23-.88,0-.42.45-.68,1.34-.79,2.09-.27,3.5-.85,4.23-1.73s1.1-2.47,1.1-4.75v-40.4l0-1.06a2.76,2.76,0,0,0-.43-1.87,3.15,3.15,0,0,0-2-.41H418.33q-3.3,0-4.78,1.32c-1,.88-1.76,2.53-2.3,5-.25,1.05-.61,1.57-1.1,1.54s-.74-.39-.74-1.1a17.76,17.76,0,0,1,.49-3.12,24.79,24.79,0,0,0,.6-4.82,4.72,4.72,0,0,1,.42-2.45,2.2,2.2,0,0,1,1.82-.59h43.88c1.49,0,2.4.16,2.71.49s.47,1.29.47,2.89a22.33,22.33,0,0,0,.19,3.49c.13.92.2,1.59.23,2,0,.82-.26,1.25-.86,1.3s-.81-.39-1-1.26c-.35-1.93-.92-3.19-1.71-3.77S454.35,408.79,452.07,408.79Z" transform="translate(-54.52 -163.86)"/><path class="cls-1" d="M494.33,438.86H479.62c-2,0-3.26.16-3.74.48a8.87,8.87,0,0,0-1.95,3.24l-2.7,6a17.17,17.17,0,0,0-1.82,6.08,3.49,3.49,0,0,0,1,2.75,8.8,8.8,0,0,0,3.77,1.46c.82.17,1.24.49,1.27,1s-.35.69-1.13.69c-.3,0-.76,0-1.38,0l-3.89-.21c-1.29-.06-2.79-.08-4.49-.08-.78,0-1.39,0-1.82.06-1.38.18-2.14.27-2.27.27-.73,0-1.09-.26-1.09-.77a.88.88,0,0,1,.69-.9l1.5-.44a5.85,5.85,0,0,0,2.19-2,19.38,19.38,0,0,0,2.28-3.6l1.18-2.69,20.89-46.38c.35-.81.73-1.22,1.16-1.22s.79.4,1.09,1.18l17.51,44.75.89,2.19c1.27,3.28,2.33,5.33,3.17,6.13s2.54,1.43,5.11,1.89c.84.16,1.24.49,1.22,1s-.41.67-1.14.67c-.24,0-.76,0-1.54-.07q-2.12-.18-7.52-.18a58.52,58.52,0,0,0-7.06.25,7.57,7.57,0,0,1-1.26.17c-.7,0-1.06-.29-1.06-.88,0-.44.35-.73,1-.87l1.26-.28a2.47,2.47,0,0,0,2.05-2.77c0-1.43-.84-4.29-2.5-8.57l-2-5.36a7.14,7.14,0,0,0-1.34-2.58A6.37,6.37,0,0,0,494.33,438.86Zm.49-6.59-6.38-16-.33-.85c-.32-.86-.68-1.31-1.05-1.33-.19,0-.41.23-.66.77l-7.92,17.54a4.54,4.54,0,0,0-.53,1.5c0,.7.62,1,1.87,1l1.1,0h12.27c1.36,0,2-.34,2-1A3.48,3.48,0,0,0,495,433Z" transform="translate(-54.52 -163.86)"/><path class="cls-1" d="M535.8,449.15l0,1.43q0,4.89.94,5.78c.62.6,2.66.9,6.1.9a43.39,43.39,0,0,0,13.22-1.8c3.73-1.21,6.11-2.79,7.14-4.77.38-.73.76-1.09,1.14-1.09s.64.27.61.81a11,11,0,0,1-2.65,5.86q-3.5,4.41-11.36,4.41c-.87,0-1.88-.05-3-.13l-4.4-.33c-2.58-.2-5.31-.29-8.19-.29a57.89,57.89,0,0,0-8.39.5c-1,.13-1.71.22-2.28.25s-1-.21-1-.72.37-.74,1.11-.95a6.27,6.27,0,0,0,3.8-2.51q1-1.65,1-5.57l0-1.88V412.57c0-3.62-1.45-5.73-4.37-6.33l-1.82-.37c-.64-.12-1-.38-1-.77,0-.59.46-.89,1.38-.89a24,24,0,0,1,2.56.17c1.84.16,3.91.25,6.21.25q3.75,0,6.79-.18l1.74-.07c.65,0,1,.19,1,.59,0,.58-.4,1-1.19,1.15l-1.43.33q-3.68.9-3.67,7.29Z" transform="translate(-54.52 -163.86)"/><circle class="cls-2" cx="76.51" cy="379.04" r="21.99" transform="translate(-65.61 -161.45) rotate(-1.68)"/><path class="cls-2" d="M76.51,379" transform="translate(-54.52 -163.86)"/><path class="cls-3" d="M177.05,163.86s7.29,32.57-27.93,72.92c-30.95,35.45-37.33,57.29-26.86,77.72s37.92,60.85,11.77,87.64C117.39,419.18,79.72,451,77.71,460c0,0-.46-20.43,20-47.91S120,366.26,95.18,341.6c-35.4-35.21-27.69-68.08-13-83.89C105.39,232.77,162,205.76,177.05,163.86Z" transform="translate(-54.52 -163.86)"/><path class="cls-4" d="M149,407s42.57-24.75,25.56-77.9C155.13,268.25,207.47,235,188,196.84c0,0,1.62,13.39-25.56,44.22-24.47,27.76-33.34,61.83-20.69,88.86C162.43,374.14,155.13,389.15,149,407Z" transform="translate(-54.52 -163.86)"/></svg>