<svg xmlns="http://www.w3.org/2000/svg" xmlns:xlink="http://www.w3.org/1999/xlink" width="1483" height="315" viewBox="0 0 1483 315">
  <defs>
    <clipPath id="clip-path">
      <path id="phone-times" d="M75.108,59.129l1.437-1.2a.611.611,0,0,0,.258-.668.749.749,0,0,0-.593-.5.9.9,0,0,0-.8.216l-1.437,1.2-1.445-1.2a.92.92,0,0,0-1.09.035.6.6,0,0,0-.042.913l1.441,1.207-1.457,1.207a.6.6,0,0,0,0,.948.917.917,0,0,0,1.132,0l1.461-1.19,1.437,1.2a.917.917,0,0,0,1.132,0,.6.6,0,0,0,0-.948Zm.257,5.482a2.972,2.972,0,0,1-.538-.081,8.716,8.716,0,0,1-1.052-.262,1.742,1.742,0,0,0-1.991.673l-.177.3A9.833,9.833,0,0,1,69.472,63.9a8.5,8.5,0,0,1-1.606-1.789l.337-.188a1.307,1.307,0,0,0,.874-1.45,1.122,1.122,0,0,0-.071-.218,6.129,6.129,0,0,1-.313-.881,4.258,4.258,0,0,1-.1-.457,2.335,2.335,0,0,0-2.409-1.675H63.779a2.636,2.636,0,0,0-1.831.685,1.806,1.806,0,0,0-.578,1.608c.88,5.8,6.341,10.354,13.264,11.07h.305a2.692,2.692,0,0,0,1.606-.511,1.889,1.889,0,0,0,.8-1.513V66.561A2.163,2.163,0,0,0,75.365,64.611Zm.4,4.035a.632.632,0,0,1-.273.5.966.966,0,0,1-.658.168c-6.185-.664-11.047-4.756-11.81-9.94a.656.656,0,0,1,.2-.551.877.877,0,0,1,.6-.229h2.409a.787.787,0,0,1,.8.531q.048.276.12.545a6.594,6.594,0,0,0,.369,1.042l-1.124.437a.736.736,0,0,0-.419.379.573.573,0,0,0,.025.516,10.88,10.88,0,0,0,5.62,4.708.948.948,0,0,0,.61,0,.768.768,0,0,0,.458-.35l.5-.942a12.66,12.66,0,0,0,1.269.309q.321.061.65.1a.709.709,0,0,1,.634.673Z" transform="translate(845.37 68.061)"/>
    </clipPath>
  </defs>
  <g id="Grupo_10" data-name="Grupo 10" transform="translate(-130 -3313)">
    <g id="logo" transform="translate(0 3300)">
      <text id="Medical_Clinic" data-name="Medical Clinic" transform="translate(140 56)" fill="#2b6edd" font-size="42" font-family="Dosis-Bold, Dosis" font-weight="700"><tspan x="0" y="0" fill="#000">MEDICAL </tspan><tspan y="0" fill="#2b6edd">CLINIC</tspan></text>
      <text id="_10_New_Team_Street_v2_SNW_Newstate_USA" data-name="10 New Team Street, v2 SNW, Newstate, USA" transform="translate(140 110)" font-size="18" font-family="TitilliumWeb-Regular, Titillium Web"><tspan x="0" y="0">10 New Team Street, v2 SNW, Newstate, USA</tspan></text>
    </g>
    <g id="contact" transform="translate(0 10.225)">
      <path id="envelope-alt" d="M15.6,4H4.4A2.4,2.4,0,0,0,2,6.4v8a2.4,2.4,0,0,0,2.4,2.4H15.6A2.4,2.4,0,0,0,18,14.4v-8A2.4,2.4,0,0,0,15.6,4ZM4.4,5.6H15.6a.8.8,0,0,1,.8.8L10,10.3,3.6,6.4A.8.8,0,0,1,4.4,5.6Zm12,8.8a.8.8,0,0,1-.8.8H4.4a.8.8,0,0,1-.8-.8V8.224L9.584,11.88a.8.8,0,0,0,.8,0L16.4,8.224Z" transform="translate(138 3486.875)"/>
      <text id="contact_medicalclinic.com_" data-name="contact@medicalclinic.com             " transform="translate(167 3503.775)" font-size="18" font-family="TitilliumWeb-Regular, Titillium Web"><tspan x="0" y="0" xml:space="preserve">contact@medicalclinic.com             </tspan></text>
    </g>
    <g id="cel" transform="translate(-1164.847 3423)">
      <text id="_54_000_000" data-name="+54 000 000" transform="translate(1332 53)" font-size="18" font-family="TitilliumWeb-Regular, Titillium Web"><tspan x="0" y="0">+54 000 000</tspan></text>
      <g id="Enmascarar_grupo_2" data-name="Enmascarar grupo 2" transform="translate(399.129 -85.233)" clip-path="url(#clip-path)">
        <path id="phone-alt" d="M31.128,24.981a2.972,2.972,0,0,1-.538-.081,8.716,8.716,0,0,1-1.052-.262,1.742,1.742,0,0,0-1.991.673l-.177.3a9.833,9.833,0,0,1-2.136-1.345,8.5,8.5,0,0,1-1.606-1.789l.337-.188a1.269,1.269,0,0,0,.8-1.668,6.126,6.126,0,0,1-.313-.881,4.26,4.26,0,0,1-.1-.457,2.335,2.335,0,0,0-2.409-1.675H19.542a2.636,2.636,0,0,0-1.831.685,1.806,1.806,0,0,0-.578,1.608c.88,5.8,6.341,10.354,13.264,11.07H30.7a2.692,2.692,0,0,0,1.606-.511,1.889,1.889,0,0,0,.8-1.513V26.932A2.163,2.163,0,0,0,31.128,24.981Zm.4,4.035a.632.632,0,0,1-.273.5.966.966,0,0,1-.658.168c-6.185-.664-11.047-4.756-11.81-9.94a.656.656,0,0,1,.2-.551.877.877,0,0,1,.6-.229H22a.787.787,0,0,1,.8.531q.048.276.12.545a6.594,6.594,0,0,0,.369,1.042l-1.124.437a.736.736,0,0,0-.419.379.573.573,0,0,0,.025.516,10.88,10.88,0,0,0,5.62,4.708.948.948,0,0,0,.61,0,.768.768,0,0,0,.458-.35l.5-.942a12.664,12.664,0,0,0,1.269.309q.321.061.65.1a.709.709,0,0,1,.634.673Z" transform="translate(889.607 107.441)"/>
      </g>
    </g>
    <g id="RedesSociales" transform="translate(0 -6.216)">
      <g id="Linkedln" transform="translate(140 3574.137)">
        <g id="Elipse_4" data-name="Elipse 4" transform="translate(-10 -9.921)" fill="none" stroke="#424242" stroke-width="1">
          <circle cx="35" cy="35" r="35" stroke="none"/>
          <circle cx="35" cy="35" r="34.5" fill="none"/>
        </g>
        <path id="linkedin-alt" d="M31.314,15.478a10.123,10.123,0,0,0-4.793,1.2,1.867,1.867,0,0,0-1.746-1.2H17.3a1.867,1.867,0,0,0-1.868,1.868V39.764A1.867,1.867,0,0,0,17.3,41.632h7.473a1.867,1.867,0,0,0,1.868-1.868V29.489a1.868,1.868,0,1,1,3.736,0V39.764a1.867,1.867,0,0,0,1.868,1.868H39.72a1.867,1.867,0,0,0,1.868-1.868V25.753A10.288,10.288,0,0,0,31.314,15.478ZM37.852,37.9H34.116V29.489a5.6,5.6,0,1,0-11.209,0V37.9H19.171V19.214h3.736v1.314A1.869,1.869,0,0,0,26.235,21.7a6.506,6.506,0,0,1,11.618,4.057ZM11.7,15.478H4.225a1.867,1.867,0,0,0-1.868,1.868V39.764a1.867,1.867,0,0,0,1.868,1.868H11.7a1.867,1.867,0,0,0,1.868-1.868V17.346A1.867,1.867,0,0,0,11.7,15.478ZM9.83,37.9H6.093V19.214H9.83ZM7.989,1.547A6.039,6.039,0,1,0,7.883,13.61h.053A6.041,6.041,0,1,0,7.989,1.547ZM7.936,9.873H7.883a2.283,2.283,0,0,1-2.558-2.3c0-1.394,1.045-2.3,2.664-2.3a2.3,2.3,0,0,1,2.609,2.3C10.6,8.972,9.552,9.873,7.936,9.873Z" transform="translate(3.411 3.495)" fill="#424242"/>
      </g>
      <g id="instagram" transform="translate(221.537 3574.137)">
        <g id="Elipse_6" data-name="Elipse 6" transform="translate(-1.537 -9.921)" fill="none" stroke="#424242" stroke-width="1">
          <circle cx="35" cy="35" r="35" stroke="none"/>
          <circle cx="35" cy="35" r="34.5" fill="none"/>
        </g>
        <path id="instagram-2" data-name="instagram" d="M32.68,8.92h0a2.4,2.4,0,1,0,2.4,2.4A2.4,2.4,0,0,0,32.68,8.92Zm9.2,4.84a15.18,15.18,0,0,0-.92-4.86,9.88,9.88,0,0,0-2.32-3.54,9.4,9.4,0,0,0-3.54-2.3,14.6,14.6,0,0,0-4.86-.94C28.12,2,27.44,2,22,2s-6.12,0-8.24.12a14.6,14.6,0,0,0-4.86.94,9.56,9.56,0,0,0-3.54,2.3A9.4,9.4,0,0,0,3.06,8.9a14.6,14.6,0,0,0-.94,4.86C2,15.88,2,16.56,2,22s0,6.12.12,8.24a14.6,14.6,0,0,0,.94,4.86,9.4,9.4,0,0,0,2.3,3.54,9.56,9.56,0,0,0,3.54,2.3,14.6,14.6,0,0,0,4.86.94c2.12.12,2.8.12,8.24.12s6.12,0,8.24-.12a14.6,14.6,0,0,0,4.86-.94,9.4,9.4,0,0,0,3.54-2.3,9.7,9.7,0,0,0,2.32-3.54,15.18,15.18,0,0,0,.92-4.86c0-2.12.12-2.8.12-8.24S42,15.88,41.88,13.76ZM38.28,30a11.22,11.22,0,0,1-.68,3.72,6.12,6.12,0,0,1-1.5,2.3,6.38,6.38,0,0,1-2.3,1.5,11.22,11.22,0,0,1-3.72.68c-2,.1-2.74.12-8,.12s-6,0-8-.12a11.46,11.46,0,0,1-3.88-.6A6.54,6.54,0,0,1,8,36.1a6,6,0,0,1-1.48-2.3,11.08,11.08,0,0,1-.8-3.8c0-2-.12-2.74-.12-8s0-6,.12-8a11.08,11.08,0,0,1,.7-3.8A6,6,0,0,1,8,8a6.28,6.28,0,0,1,2.2-1.6A11.46,11.46,0,0,1,14,5.72c2,0,2.74-.12,8-.12s6,0,8,.12a11.22,11.22,0,0,1,3.72.68A6.12,6.12,0,0,1,36.1,8a6.12,6.12,0,0,1,1.5,2.2,11.22,11.22,0,0,1,.68,3.8c.1,2,.12,2.74.12,8S38.38,28,38.28,30ZM22,11.74a10.24,10.24,0,1,0,7.274,2.992A10.26,10.26,0,0,0,22,11.74Zm0,16.92A6.66,6.66,0,1,1,28.66,22,6.66,6.66,0,0,1,22,28.66Z" transform="translate(11.463 3.079)" fill="#424242"/>
      </g>
      <g id="twitter" transform="translate(312.88 3574.137)">
        <g id="Elipse_7" data-name="Elipse 7" transform="translate(-2.88 -9.921)" fill="none" stroke="#424242" stroke-width="1">
          <circle cx="35" cy="35" r="35" stroke="none"/>
          <circle cx="35" cy="35" r="34.5" fill="none"/>
        </g>
        <path id="twitter-alt" d="M40.979,5.02a1.817,1.817,0,0,0-2.746-1.562,13.6,13.6,0,0,1-3.4,1.441A9.365,9.365,0,0,0,28.7,2.642a9.51,9.51,0,0,0-9.494,9.2A20.052,20.052,0,0,1,6.817,4.713a1.839,1.839,0,0,0-1.558-.664,1.815,1.815,0,0,0-1.427.909,9.589,9.589,0,0,0-.44,8.667l0,0a1.892,1.892,0,0,0-.9,1.615,5.529,5.529,0,0,0,.048.8,9.425,9.425,0,0,0,2.851,6.021,1.814,1.814,0,0,0-.121,1.4,9.459,9.459,0,0,0,4.294,5.311,13.568,13.568,0,0,1-6.525.815A1.817,1.817,0,0,0,1.826,32.92a23.524,23.524,0,0,0,12.741,3.747A23.243,23.243,0,0,0,37.223,19.648,23.305,23.305,0,0,0,38.2,13.02c0-.119,0-.241,0-.364A10.487,10.487,0,0,0,40.979,5.02Zm-6.01,5.838a1.809,1.809,0,0,0-.424,1.276c.018.3.016.6.016.886a19.673,19.673,0,0,1-.825,5.6A19.42,19.42,0,0,1,14.567,33.031a19.881,19.881,0,0,1-4.636-.547,17.23,17.23,0,0,0,5.348-2.842A1.818,1.818,0,0,0,14.185,26.4a5.831,5.831,0,0,1-4.024-1.7q.407-.077.809-.192a1.818,1.818,0,0,0-.146-3.532,5.813,5.813,0,0,1-4.09-3.136,9.633,9.633,0,0,0,.99.083,1.856,1.856,0,0,0,1.787-1.266,1.817,1.817,0,0,0-.728-2.066A5.808,5.808,0,0,1,6.2,9.731c0-.121,0-.241.011-.36a23.654,23.654,0,0,0,14.921,6.324,1.855,1.855,0,0,0,1.486-.651,1.818,1.818,0,0,0,.374-1.578,5.737,5.737,0,0,1-.158-1.324A5.871,5.871,0,0,1,28.7,6.277a5.788,5.788,0,0,1,4.262,1.855,1.8,1.8,0,0,0,1.674.541,16.852,16.852,0,0,0,2.2-.586A12.144,12.144,0,0,1,34.969,10.858Z" transform="translate(11.129 5.425)" fill="#424242"/>
      </g>
      <g id="facebook" transform="translate(407.417 3573.137)">
        <g id="Elipse_8" data-name="Elipse 8" transform="translate(-7.417 -8.921)" fill="none" stroke="#424242" stroke-width="1">
          <circle cx="35" cy="35" r="35" stroke="none"/>
          <circle cx="35" cy="35" r="34.5" fill="none"/>
        </g>
        <path id="facebook-f" d="M22.991,8.391H26.61V2.27A50.261,50.261,0,0,0,21.336,2C16.1,2,12.52,5.2,12.52,11.047V16.09H6.61v6.853h5.91V40.5H19.6V22.943h5.89l.885-6.853H19.6v-4.37C19.6,9.7,20.142,8.391,22.991,8.391Z" transform="translate(10.973 4.83)" fill="#424242"/>
      </g>
    </g>
    <g id="Menu" transform="translate(-110 4)">
      <text id="Menu-2" data-name="Menu" transform="translate(830 3348)" font-size="24" font-family="TitilliumWeb-Bold, Titillium Web" font-weight="700"><tspan x="0" y="0">Menu</tspan></text>
      <text id="Work" transform="translate(830 3410)" font-size="18" font-family="TitilliumWeb-Regular, Titillium Web"><tspan x="0" y="0">Work</tspan></text>
      <text id="About" transform="translate(830 3459)" font-size="18" font-family="TitilliumWeb-Regular, Titillium Web"><tspan x="0" y="0">About</tspan></text>
      <text id="News" transform="translate(830 3508)" font-size="18" font-family="TitilliumWeb-Regular, Titillium Web"><tspan x="0" y="0">News</tspan></text>
      <text id="Services" transform="translate(830 3557)" font-size="18" font-family="TitilliumWeb-Regular, Titillium Web"><tspan x="0" y="0">Services</tspan></text>
    </g>
    <g id="useful_link" data-name="useful link" transform="translate(-110 4)">
      <text id="Useful_link-2" data-name="Useful link" transform="translate(986 3347)" font-size="24" font-family="TitilliumWeb-Bold, Titillium Web" font-weight="700"><tspan x="0" y="0">Useful link</tspan></text>
      <text id="Privacy_Policy" data-name="Privacy Policy" transform="translate(986 3409)" font-size="18" font-family="TitilliumWeb-Regular, Titillium Web"><tspan x="0" y="0">Privacy Policy</tspan></text>
      <text id="Cookie_Policy" data-name="Cookie Policy" transform="translate(986 3458)" font-size="18" font-family="TitilliumWeb-Regular, Titillium Web"><tspan x="0" y="0">Cookie Policy</tspan></text>
      <text id="Purchasing_Policy" data-name="Purchasing Policy" transform="translate(986 3507)" font-size="18" font-family="TitilliumWeb-Regular, Titillium Web"><tspan x="0" y="0">Purchasing Policy</tspan></text>
      <text id="Terms_Conditions" data-name="Terms &amp; Conditions" transform="translate(986 3556)" font-size="18" font-family="TitilliumWeb-Regular, Titillium Web"><tspan x="0" y="0">Terms &amp; Conditions</tspan></text>
      <text id="Career" transform="translate(986 3605)" font-size="18" font-family="TitilliumWeb-Regular, Titillium Web"><tspan x="0" y="0">Career</tspan></text>
    </g>
    <g id="Submit" transform="translate(0 2)">
      <g id="Rect치ngulo_10" data-name="Rect치ngulo 10" transform="translate(1244 3558)" fill="#fff" stroke="#707070" stroke-width="1">
        <rect width="369" height="40" rx="20" stroke="none"/>
        <rect x="0.5" y="0.5" width="368" height="39" rx="19.5" fill="none"/>
      </g>
      <text id="Email_address" data-name="Email address" transform="translate(1265 3585)" fill="#424242" font-size="18" font-family="TitilliumWeb-Regular, Titillium Web"><tspan x="0" y="0">Email address</tspan></text>
      <g id="Rect치ngulo_11" data-name="Rect치ngulo 11" transform="translate(1568 3558)" fill="#2b6edd" stroke="#707070" stroke-width="1">
        <path d="M0,0H25A20,20,0,0,1,45,20v0A20,20,0,0,1,25,40H0a0,0,0,0,1,0,0V0A0,0,0,0,1,0,0Z" stroke="none"/>
        <path d="M.747.5H25A19.5,19.5,0,0,1,44.5,20v0A19.5,19.5,0,0,1,25,39.5H.747A.247.247,0,0,1,.5,39.253V.747A.247.247,0,0,1,.747.5Z" fill="none"/>
      </g>
      <path id="message" d="M24.007,10.782l-16.8-8.4a3.6,3.6,0,0,0-4.9,4.68l2.88,6.444h0a1.272,1.272,0,0,1,0,.984l-2.88,6.444A3.6,3.6,0,0,0,5.6,26a3.768,3.768,0,0,0,1.62-.384l16.8-8.4a3.6,3.6,0,0,0,0-6.432Zm-1.068,4.284-16.8,8.4a1.2,1.2,0,0,1-1.62-1.56l2.868-6.444a2.4,2.4,0,0,0,.1-.264h8.268a1.2,1.2,0,1,0,0-2.4H7.484a2.4,2.4,0,0,0-.1-.264L4.52,6.091a1.2,1.2,0,0,1,1.62-1.56l16.8,8.4a1.2,1.2,0,0,1,0,2.136Z" transform="translate(1570.699 3578.5) rotate(-45)" fill="#fff"/>
      <g id="contact-2" data-name="contact" transform="translate(0 -2)">
        <text id="Contact-3" data-name="Contact" transform="translate(1244 3348)" font-size="24" font-family="TitilliumWeb-Bold, Titillium Web" font-weight="700"><tspan x="0" y="0">Contact</tspan></text>
        <text id="Blandit_feugiat_viverra_est_tortor_commodo_tellus._Neque_pellentesque_diam_id_felis_viverra_diam._Molestie_sollicitudin_semper_ornare_dolor_augue." data-name="Blandit feugiat viverra est tortorcommodo, tellus. Neque, pellentesque diam,id felis viverra diam. Molestie sollicitudinsemper ornare dolor augue." transform="translate(1244 3427)" font-size="18" font-family="TitilliumWeb-Regular, Titillium Web"><tspan x="0" y="0">Blandit feugiat viverra est tortor</tspan><tspan x="0" y="27">commodo, tellus. Neque, pellentesque diam,</tspan><tspan x="0" y="54">id felis viverra diam. Molestie sollicitudin</tspan><tspan x="0" y="81">semper ornare dolor augue.</tspan></text>
      </g>
    </g>
  </g>
</svg>
