<svg xmlns="http://www.w3.org/2000/svg" width="41" height="41" viewBox="0 0 41 41">
  <g id="arrow-circle-right" transform="translate(42.5 42.5) rotate(180)">
    <path id="Trazado_51" data-name="Trazado 51" d="M18.414,26.414l8-8a2.007,2.007,0,0,0,0-2.829l-8-8a2,2,0,1,0-2.828,2.828L20.172,15H9a2,2,0,0,0,0,4H20.172l-4.586,4.586a2,2,0,1,0,2.828,2.828Z" transform="translate(5 5)" fill="#fff"/>
    <path id="Trazado_52" data-name="Trazado 52" d="M42,22A20,20,0,1,0,22,42,20,20,0,0,0,42,22ZM20.586,31.414a2,2,0,0,1,0-2.828L25.172,24H14a2,2,0,0,1,0-4H25.172l-4.586-4.586a2,2,0,1,1,2.828-2.828l8,8a2.007,2.007,0,0,1,0,2.829l-8,8a2,2,0,0,1-2.828,0Z" fill="none" stroke="#fff" stroke-width="1"/>
  </g>
</svg>
