<svg xmlns="http://www.w3.org/2000/svg" xmlns:xlink="http://www.w3.org/1999/xlink" width="194" height="19.074" viewBox="0 0 194 19.074">
  <defs>
    <clipPath id="clip-path">
      <rect width="194" height="19.074" fill="none"/>
    </clipPath>
  </defs>
  <g id="Cuadrícula_de_repetición_4" data-name="Cuadrícula de repetición 4" clip-path="url(#clip-path)">
    <g transform="translate(-1496 -834)">
      <path id="star_1_" data-name="star (1)" d="M17.563,21.56a1,1,0,0,1-.465-.115L12,18.765l-5.1,2.68a1,1,0,0,1-1.451-1.054l.974-5.676L2.3,10.7A1,1,0,0,1,2.856,8.99l5.7-.828L11.1,3A1.042,1.042,0,0,1,12.9,3l2.548,5.164,5.7.828A1,1,0,0,1,21.7,10.7l-4.124,4.019.974,5.676a1,1,0,0,1-.986,1.169Z" transform="translate(1494 831.514)" fill="#fff"/>
    </g>
    <g transform="translate(-1455 -834)">
      <path id="star_1_2" data-name="star (1)" d="M17.563,21.56a1,1,0,0,1-.465-.115L12,18.765l-5.1,2.68a1,1,0,0,1-1.451-1.054l.974-5.676L2.3,10.7A1,1,0,0,1,2.856,8.99l5.7-.828L11.1,3A1.042,1.042,0,0,1,12.9,3l2.548,5.164,5.7.828A1,1,0,0,1,21.7,10.7l-4.124,4.019.974,5.676a1,1,0,0,1-.986,1.169Z" transform="translate(1494 831.514)" fill="#fff"/>
    </g>
    <g transform="translate(-1414 -834)">
      <path id="star_1_3" data-name="star (1)" d="M17.563,21.56a1,1,0,0,1-.465-.115L12,18.765l-5.1,2.68a1,1,0,0,1-1.451-1.054l.974-5.676L2.3,10.7A1,1,0,0,1,2.856,8.99l5.7-.828L11.1,3A1.042,1.042,0,0,1,12.9,3l2.548,5.164,5.7.828A1,1,0,0,1,21.7,10.7l-4.124,4.019.974,5.676a1,1,0,0,1-.986,1.169Z" transform="translate(1494 831.514)" fill="#fff"/>
    </g>
    <g transform="translate(-1373 -834)">
      <path id="star_1_4" data-name="star (1)" d="M17.563,21.56a1,1,0,0,1-.465-.115L12,18.765l-5.1,2.68a1,1,0,0,1-1.451-1.054l.974-5.676L2.3,10.7A1,1,0,0,1,2.856,8.99l5.7-.828L11.1,3A1.042,1.042,0,0,1,12.9,3l2.548,5.164,5.7.828A1,1,0,0,1,21.7,10.7l-4.124,4.019.974,5.676a1,1,0,0,1-.986,1.169Z" transform="translate(1494 831.514)" fill="#fff"/>
    </g>
    <g transform="translate(-1332 -834)">
      <path id="star_1_5" data-name="star (1)" d="M17.563,21.56a1,1,0,0,1-.465-.115L12,18.765l-5.1,2.68a1,1,0,0,1-1.451-1.054l.974-5.676L2.3,10.7A1,1,0,0,1,2.856,8.99l5.7-.828L11.1,3A1.042,1.042,0,0,1,12.9,3l2.548,5.164,5.7.828A1,1,0,0,1,21.7,10.7l-4.124,4.019.974,5.676a1,1,0,0,1-.986,1.169Z" transform="translate(1494 831.514)" fill="#fff"/>
    </g>
  </g>
</svg>
