<svg xmlns="http://www.w3.org/2000/svg" width="138" height="138" viewBox="0 0 138 138">
  <g id="Grupo_7" data-name="Grupo 7" transform="translate(0 0.26)">
    <path id="Trazado_12" data-name="Trazado 12" d="M69,0c39.777.517,69,30.892,69,69A69,69,0,0,1,0,69V0Z" transform="translate(0 -0.26)" fill="#fe9a25"/>
    <path id="house-user" d="M90.489,39.137l-40.5-36a4.5,4.5,0,0,0-5.977,0l-40.5,36a4.5,4.5,0,1,0,5.977,6.728L11,44.522V87.5A4.5,4.5,0,0,0,15.5,92h63A4.5,4.5,0,0,0,83,87.5V44.522l1.512,1.344a4.5,4.5,0,1,0,5.977-6.728ZM34.329,83a13.419,13.419,0,0,1,25.342,0Zm5.921-24.75A6.75,6.75,0,1,1,47,65,6.75,6.75,0,0,1,40.25,58.252ZM74,83H69.045A22.5,22.5,0,0,0,58.881,68.475a15.751,15.751,0,1,0-23.762,0A22.5,22.5,0,0,0,24.955,83H20V36.522l27-24,27,24Z" transform="translate(22 21.74)" fill="#fff"/>
  </g>
</svg>
