<svg xmlns="http://www.w3.org/2000/svg" width="138" height="138" viewBox="0 0 138 138">
  <g id="Grupo_18" data-name="Grupo 18" transform="translate(-4 0.26)">
    <path id="Trazado_12" data-name="Trazado 12" d="M69,0c39.777.517,69,30.892,69,69A69,69,0,0,1,0,69V0Z" transform="translate(4 -0.26)" fill="#3ec6f9"/>
    <path id="stethoscope" d="M78.5,29A13.466,13.466,0,0,0,74,55.17v7.579a20.25,20.25,0,1,1-40.5,0V60.093A27.02,27.02,0,0,0,56,33.5V6.5A4.5,4.5,0,0,0,51.5,2h-9a4.5,4.5,0,1,0,0,9H47V33.5a18,18,0,1,1-36,0V11h4.5a4.5,4.5,0,1,0,0-9h-9A4.5,4.5,0,0,0,2,6.5v27A27.02,27.02,0,0,0,24.5,60.093v2.656a29.25,29.25,0,1,0,58.5,0V55.17A13.466,13.466,0,0,0,78.5,29Zm0,18A4.5,4.5,0,1,1,83,42.5,4.5,4.5,0,0,1,78.5,47Z" transform="translate(26 21.74)" fill="#fff"/>
  </g>
</svg>
