<svg xmlns="http://www.w3.org/2000/svg" width="138" height="138" viewBox="0 0 138 138">
  <g id="Grupo_18" data-name="Grupo 18" transform="translate(-0.5 0.26)">
    <path id="Trazado_12" data-name="Trazado 12" d="M69,0c39.777.517,69,30.892,69,69A69,69,0,0,1,0,69V0Z" transform="translate(0.5 -0.26)" fill="#2b6edd"/>
    <path id="chat-bubble-user" d="M55.11,43.85a14.58,14.58,0,0,0,3.195-9,14.8,14.8,0,1,0-29.61,0,14.58,14.58,0,0,0,3.2,9,22.5,22.5,0,0,0-9,10.395,4.5,4.5,0,1,0,8.28,3.51,13.5,13.5,0,0,1,12.33-8.19h0a13.5,13.5,0,0,1,12.375,8.19,4.5,4.5,0,0,0,4.14,2.745,4.9,4.9,0,0,0,1.755-.36,4.5,4.5,0,0,0,2.385-5.895A22.5,22.5,0,0,0,55.11,43.85ZM43.5,40.565h0a5.8,5.8,0,1,1,5.8-5.76,5.8,5.8,0,0,1-5.8,5.76ZM70.5,2h-54A13.5,13.5,0,0,0,3,15.5V65A13.5,13.5,0,0,0,16.5,78.5H28.155L40.3,90.695a4.534,4.534,0,0,0,6.12.225L60.915,78.5H70.5A13.5,13.5,0,0,0,84,65V15.5A13.5,13.5,0,0,0,70.5,2ZM75,65a4.5,4.5,0,0,1-4.5,4.5H59.25a4.5,4.5,0,0,0-2.925,1.08l-12.6,10.8L33.195,70.8A4.5,4.5,0,0,0,30,69.5H16.5A4.5,4.5,0,0,1,12,65V15.5A4.5,4.5,0,0,1,16.5,11h54A4.5,4.5,0,0,1,75,15.5Z" transform="translate(26.5 21.74)" fill="#fff"/>
  </g>
</svg>
