<svg xmlns="http://www.w3.org/2000/svg" width="140.955" height="55.104" viewBox="0 0 140.955 55.104">
  <g id="swiss-medical" transform="translate(0)">
    <path id="Trazado_17" data-name="Trazado 17" d="M-1433.727,695.068l1.191-2.889h1.783v.12h-.143a.613.613,0,0,0-.31.067.329.329,0,0,0-.13.152,1.344,1.344,0,0,0-.035.4v2.889a1.448,1.448,0,0,0,.035.418.328.328,0,0,0,.146.147.581.581,0,0,0,.295.064h.143v.123h-2.29v-.119h.142a.616.616,0,0,0,.311-.068.314.314,0,0,0,.129-.155,1.34,1.34,0,0,0,.035-.407v-3.249l-1.68,4h-.078l-1.707-3.968v3.086a2.7,2.7,0,0,0,.016.4.46.46,0,0,0,.183.262.755.755,0,0,0,.441.1v.119h-1.5v-.119h.045a.69.69,0,0,0,.271-.048.444.444,0,0,0,.19-.133.64.64,0,0,0,.1-.236c0-.024.006-.133.006-.33v-2.775a1.423,1.423,0,0,0-.035-.415.331.331,0,0,0-.146-.146.6.6,0,0,0-.295-.063h-.139v-.12h1.791l1.231,2.889Zm10.227-2.636v1.783h.088a.691.691,0,0,0,.6-.261,1.627,1.627,0,0,0,.24-.772h.122v2.294h-.122a1.737,1.737,0,0,0-.163-.614.7.7,0,0,0-.29-.322,1.088,1.088,0,0,0-.478-.082v1.234a1.729,1.729,0,0,0,.031.443.26.26,0,0,0,.114.132.529.529,0,0,0,.271.052h.262a1.574,1.574,0,0,0,.984-.284,1.588,1.588,0,0,0,.532-.866h.119l-.2,1.393h-3.79v-.119h.146a.605.605,0,0,0,.307-.068.29.29,0,0,0,.129-.156,1.312,1.312,0,0,0,.038-.407v-2.882a2.258,2.258,0,0,0-.016-.365.309.309,0,0,0-.119-.174.557.557,0,0,0-.336-.091h-.146v-.12h3.669v1.3h-.122a1.577,1.577,0,0,0-.264-.682.982.982,0,0,0-.48-.3,2.627,2.627,0,0,0-.679-.059Zm8.026,4.131v-.119h.146a.569.569,0,0,0,.292-.061.359.359,0,0,0,.152-.163,1.515,1.515,0,0,0,.03-.407v-2.882a1.357,1.357,0,0,0-.038-.421.315.315,0,0,0-.143-.147.583.583,0,0,0-.292-.063h-.146v-.122h1.962a3.135,3.135,0,0,1,1.265.214,1.863,1.863,0,0,1,.887.791,2.375,2.375,0,0,1,.3,1.2,2.353,2.353,0,0,1-.149.851,1.96,1.96,0,0,1-.383.644,1.886,1.886,0,0,1-.545.408,2.964,2.964,0,0,1-.755.237,3.643,3.643,0,0,1-.621.038Zm1.673-4.132v3.419a1.235,1.235,0,0,0,.025.332.185.185,0,0,0,.087.094.522.522,0,0,0,.253.049.979.979,0,0,0,.824-.368,2.5,2.5,0,0,0,.387-1.544,2.9,2.9,0,0,0-.266-1.348,1.129,1.129,0,0,0-.539-.536,2.081,2.081,0,0,0-.773-.1Zm10.774,4.013v.119h-2.291v-.119h.146a.6.6,0,0,0,.307-.068.289.289,0,0,0,.129-.155,1.237,1.237,0,0,0,.038-.407v-2.882a1.356,1.356,0,0,0-.038-.421.316.316,0,0,0-.144-.147.582.582,0,0,0-.292-.063h-.146v-.122h2.292v.12h-.146a.605.605,0,0,0-.307.067.308.308,0,0,0-.132.156,1.352,1.352,0,0,0-.035.407v2.882a1.313,1.313,0,0,0,.038.418.34.34,0,0,0,.146.147.571.571,0,0,0,.292.064Zm9.9-4.362V693.6h-.126a1.619,1.619,0,0,0-.532-.912,1.354,1.354,0,0,0-.879-.316,1.294,1.294,0,0,0-.753.236,1.368,1.368,0,0,0-.5.617,2.794,2.794,0,0,0-.2,1.085,3.623,3.623,0,0,0,.149,1.071,1.418,1.418,0,0,0,.466.73,1.3,1.3,0,0,0,.821.247,1.6,1.6,0,0,0,.759-.181,2.653,2.653,0,0,0,.726-.623v.378a2.356,2.356,0,0,1-.768.557,2.355,2.355,0,0,1-.933.173,2.675,2.675,0,0,1-1.246-.281,1.988,1.988,0,0,1-.842-.8,2.266,2.266,0,0,1-.3-1.121,2.313,2.313,0,0,1,.329-1.189,2.3,2.3,0,0,1,.885-.874,2.4,2.4,0,0,1,1.185-.31,2.7,2.7,0,0,1,.976.2,1.565,1.565,0,0,0,.38.117.244.244,0,0,0,.179-.076.415.415,0,0,0,.1-.24Zm8.111,4.36v.121h-2.292v-.119h.146a.6.6,0,0,0,.307-.068.287.287,0,0,0,.129-.155,1.236,1.236,0,0,0,.038-.407v-2.882a1.356,1.356,0,0,0-.038-.421.317.317,0,0,0-.143-.147.583.583,0,0,0-.292-.063h-.146v-.122h2.292v.12h-.144a.609.609,0,0,0-.307.067.307.307,0,0,0-.132.156,1.352,1.352,0,0,0-.035.407v2.882a1.332,1.332,0,0,0,.038.418.339.339,0,0,0,.146.147.574.574,0,0,0,.292.064Zm7.13-4.263,2.163,2.718v-1.884a.882.882,0,0,0-.114-.532.629.629,0,0,0-.521-.181v-.121h1.448v.12a1.1,1.1,0,0,0-.373.092.37.37,0,0,0-.149.184,1.279,1.279,0,0,0-.053.438v3.65h-.11l-2.965-3.65V695.8a.611.611,0,0,0,.173.509.626.626,0,0,0,.4.133h.1v.121h-1.552v-.119a.7.7,0,0,0,.5-.149.7.7,0,0,0,.143-.494v-3.094l-.094-.117a.891.891,0,0,0-.246-.228.743.743,0,0,0-.307-.061v-.121Zm11.215,3.134h-1.549l-.184.427a.939.939,0,0,0-.09.352.291.291,0,0,0,.149.271,1.222,1.222,0,0,0,.43.078v.121h-1.458v-.119a.653.653,0,0,0,.387-.2,2.527,2.527,0,0,0,.375-.661l1.568-3.5h.062l1.58,3.593a2.187,2.187,0,0,0,.372.643.511.511,0,0,0,.311.117v.121h-2.121v-.119h.087a.659.659,0,0,0,.359-.072.172.172,0,0,0,.072-.149.385.385,0,0,0-.02-.119c0-.02-.038-.1-.1-.243l-.233-.546Zm-.11-.239-.652-1.509-.673,1.509Zm10.542-.5v1.217a1.326,1.326,0,0,0,.044.447.315.315,0,0,0,.154.148,1.016,1.016,0,0,0,.409.055v.119h-2.229v-.119a.985.985,0,0,0,.412-.057.332.332,0,0,0,.152-.147,1.358,1.358,0,0,0,.043-.446v-2.843a1.375,1.375,0,0,0-.043-.448.32.32,0,0,0-.154-.147,1.007,1.007,0,0,0-.411-.055v-.122h1.911a2.147,2.147,0,0,1,1.354.336,1.044,1.044,0,0,1,.411.84,1.075,1.075,0,0,1-.266.73,1.364,1.364,0,0,1-.731.413,4.994,4.994,0,0,1-1.06.076Zm0-2.145v1.894c.072,0,.125.007.162.007a.782.782,0,0,0,.608-.235,1.05,1.05,0,0,0,.214-.726,1.008,1.008,0,0,0-.214-.714.834.834,0,0,0-.637-.226Zm9.343,2.132v1.228a1.363,1.363,0,0,0,.043.447.323.323,0,0,0,.152.148,1.048,1.048,0,0,0,.411.055v.121h-2.243v-.119a.99.99,0,0,0,.413-.057.332.332,0,0,0,.152-.147,1.348,1.348,0,0,0,.043-.446v-2.843a1.369,1.369,0,0,0-.043-.448.318.318,0,0,0-.154-.147,1.006,1.006,0,0,0-.411-.055v-.122h2.037a4.48,4.48,0,0,1,1.164.11,1.171,1.171,0,0,1,.6.406,1.089,1.089,0,0,1,.233.692,1.037,1.037,0,0,1-.35.8,1.438,1.438,0,0,1-.624.3l1.054,1.483a2.412,2.412,0,0,0,.294.359.552.552,0,0,0,.308.11v.122h-1.38l-1.412-2Zm0-2.148v1.919h.184a2.059,2.059,0,0,0,.672-.081.67.67,0,0,0,.351-.3,1.09,1.09,0,0,0,.128-.56,1.021,1.021,0,0,0-.235-.74,1.018,1.018,0,0,0-.755-.239Zm10.774,4.026v.121h-2.292v-.119h.146a.6.6,0,0,0,.307-.068.289.289,0,0,0,.129-.155,1.323,1.323,0,0,0,.038-.407v-2.882a1.357,1.357,0,0,0-.038-.421.316.316,0,0,0-.144-.147.582.582,0,0,0-.292-.063h-.146v-.122h2.292v.12h-.146a.6.6,0,0,0-.307.067.31.31,0,0,0-.133.156,1.358,1.358,0,0,0-.035.407v2.882a1.3,1.3,0,0,0,.038.418.341.341,0,0,0,.146.147.57.57,0,0,0,.292.064Zm10.193-4.263v.12a.707.707,0,0,0-.426.255,3.944,3.944,0,0,0-.4.76l-1.511,3.346h-.106l-1.505-3.481a4.438,4.438,0,0,0-.363-.74.522.522,0,0,0-.347-.139v-.121h2.1v.12h-.069a.742.742,0,0,0-.389.071.159.159,0,0,0-.074.142.483.483,0,0,0,.025.138c.018.052.076.194.175.425l.935,2.18.866-1.941a4.8,4.8,0,0,0,.19-.472.71.71,0,0,0,.035-.2.289.289,0,0,0-.052-.171.316.316,0,0,0-.152-.114,1.012,1.012,0,0,0-.368-.055v-.119Zm7.3,3.134h-1.548l-.184.427a.943.943,0,0,0-.09.352.291.291,0,0,0,.149.271,1.219,1.219,0,0,0,.429.078v.121h-1.459v-.119a.654.654,0,0,0,.387-.2,2.563,2.563,0,0,0,.375-.661l1.568-3.5h.062l1.58,3.593a2.177,2.177,0,0,0,.372.643.511.511,0,0,0,.311.117v.121h-2.121v-.119h.087a.659.659,0,0,0,.359-.072.172.172,0,0,0,.072-.149.385.385,0,0,0-.02-.119c0-.02-.038-.1-.1-.243l-.233-.546Zm-.11-.239-.654-1.509-.673,1.509Zm7.551,1.488v-.119h.146a.569.569,0,0,0,.292-.061.355.355,0,0,0,.152-.163,1.507,1.507,0,0,0,.03-.407v-2.882a1.357,1.357,0,0,0-.038-.421.315.315,0,0,0-.144-.147.582.582,0,0,0-.292-.063h-.146v-.122h1.962a3.136,3.136,0,0,1,1.265.214,1.862,1.862,0,0,1,.887.791,2.517,2.517,0,0,1,.152,2.05,1.955,1.955,0,0,1-.382.644,1.884,1.884,0,0,1-.545.408,2.973,2.973,0,0,1-.755.237,3.635,3.635,0,0,1-.621.038Zm1.673-4.132v3.419a1.25,1.25,0,0,0,.025.332.185.185,0,0,0,.087.094.522.522,0,0,0,.253.049.979.979,0,0,0,.824-.368,2.508,2.508,0,0,0,.387-1.544,2.9,2.9,0,0,0-.266-1.348,1.131,1.131,0,0,0-.539-.536,2.084,2.084,0,0,0-.772-.1Zm11.1,2.885h-1.548l-.185.427a.946.946,0,0,0-.09.352.291.291,0,0,0,.149.271,1.217,1.217,0,0,0,.429.078v.119h-1.458v-.119a.655.655,0,0,0,.387-.2,2.577,2.577,0,0,0,.375-.661l1.568-3.5h.062l1.58,3.593a2.175,2.175,0,0,0,.372.643.51.51,0,0,0,.311.117v.121h-2.121v-.119h.087a.659.659,0,0,0,.359-.072.172.172,0,0,0,.072-.149.385.385,0,0,0-.02-.119c0-.02-.036-.1-.1-.243l-.233-.546Zm-.111-.239-.652-1.509-.673,1.509Z" transform="translate(1437.419 -641.559)" fill="#707070"/>
    <path id="Trazado_18" data-name="Trazado 18" d="M-1449.734,91.708a10.428,10.428,0,0,1-2.912-1.532,2.99,2.99,0,0,1-1.009-2.433,3.474,3.474,0,0,1,.38-1.633,3.731,3.731,0,0,1,1.039-1.231,4.828,4.828,0,0,1,1.472-.76,5.424,5.424,0,0,1,1.645-.258c.412,0,.844.038,1.255.076.35.031.744.074,1.1.074a7,7,0,0,0,1.438-.146l.067-.014,0,.065c.029.621.091,1.245.161,1.863q.117,1.073.262,2.144l.006.043-.368.13-.023-.045c-.33-.654-.678-1.321-1.074-1.943a5.025,5.025,0,0,0-1.206-1.287,2.65,2.65,0,0,0-1.657-.564,3.182,3.182,0,0,0-1.361.282,2.211,2.211,0,0,0-.927.81,2.142,2.142,0,0,0-.339,1.189,1.913,1.913,0,0,0,.843,1.751,14.851,14.851,0,0,0,2.789,1.217,9.139,9.139,0,0,1,2.931,1.559,3.439,3.439,0,0,1,.995,2.671,4.5,4.5,0,0,1-.784,2.681,4.714,4.714,0,0,1-2.1,1.635,7.425,7.425,0,0,1-2.861.541,12.987,12.987,0,0,1-3.893-.573l-.036-.011-.452-4.722.469-.076.013.048a9.778,9.778,0,0,0,.961,2.214,7.353,7.353,0,0,0,1.591,1.947,2.966,2.966,0,0,0,1.954.78,3.47,3.47,0,0,0,1.738-.425,2.912,2.912,0,0,0,1.163-1.2,3.9,3.9,0,0,0,.411-1.846,1.923,1.923,0,0,0-.88-1.745,15.567,15.567,0,0,0-2.8-1.275Zm17.956,4,1.854-5.8a4.516,4.516,0,0,0,.232-.966,1.34,1.34,0,0,0-.331-.773c-.117-.158-.353-.52-.688-.6l-.912-.142-.019-.374h4.169V87.4h-.055a.419.419,0,0,0-.312.11l-1.035,1.076a2.6,2.6,0,0,0-.59.962l-2.959,9.2h-.2l-2.651-8.174-2.635,8.174h-.231l-3.178-9.9a2.139,2.139,0,0,0-.3-.6,1.875,1.875,0,0,0-.633-.477l-1.013-.281v-.416h5.018V87.4l-.052,0a.868.868,0,0,0-.473.238,2.165,2.165,0,0,0-.462.559,1.2,1.2,0,0,0-.182.517,6.187,6.187,0,0,0,.245.95l1.913,6.108,1.643-5.045a3.509,3.509,0,0,0,.164-.6,1.68,1.68,0,0,0-.084-.367c-.057-.19-.118-.378-.185-.565-.054-.155-.109-.311-.171-.462a2.512,2.512,0,0,0-.7-.862,1.989,1.989,0,0,0-.933-.474l-.047-.006v-.329h4.8v.322l-.038.012a2.235,2.235,0,0,0-.328.119,2.016,2.016,0,0,0-.583.545,1.08,1.08,0,0,0-.237.582,1.51,1.51,0,0,0,.041.288,3.722,3.722,0,0,0,.1.386q.072.219.135.44l1.914,5.955Zm10.025,2.9h-4.835v-.336h.055a2.606,2.606,0,0,0,.507-.046,1.231,1.231,0,0,0,.494-.328.815.815,0,0,0,.293-.484V88.442a1.242,1.242,0,0,0-.311-.6c-.116-.144-.328-.385-.53-.4-.1-.009-.2-.017-.3-.017s-.176-.007-.266-.013l-.051,0v-.332h4.842V87.4h-.055a3.259,3.259,0,0,0-.5.046,1.024,1.024,0,0,0-.481.3.756.756,0,0,0-.266.508v8.767a1.292,1.292,0,0,0,.19.63,1.337,1.337,0,0,0,.483.5,1.543,1.543,0,0,0,.679.121h.055v.336Zm10.195-.333-.354-3.733.39-.063.013.048a7.574,7.574,0,0,0,.749,1.739,5.736,5.736,0,0,0,1.24,1.529,2.308,2.308,0,0,0,1.523.612,2.692,2.692,0,0,0,1.358-.332,2.293,2.293,0,0,0,.9-.941,3.079,3.079,0,0,0,.32-1.445,1.505,1.505,0,0,0-.684-1.363,11.912,11.912,0,0,0-2.192-1.005,8.05,8.05,0,0,1-2.283-1.206,2.372,2.372,0,0,1-.793-1.926,2.777,2.777,0,0,1,.3-1.289,2.878,2.878,0,0,1,.816-.97,3.649,3.649,0,0,1,1.154-.6,4.241,4.241,0,0,1,1.293-.2c.323,0,.662.03.984.056.272.024.581.059.854.059a5.491,5.491,0,0,0,1.124-.114l.066-.014,0,.063c.024.489.073.98.125,1.467.063.562.129,1.123.2,1.683l.005.041-.3.114-.022-.045a16.955,16.955,0,0,0-.841-1.528,3.949,3.949,0,0,0-.939-1.011,2.081,2.081,0,0,0-1.289-.439,2.439,2.439,0,0,0-1.062.221,1.717,1.717,0,0,0-.722.633,1.7,1.7,0,0,0-.262.932,1.5,1.5,0,0,0,.654,1.369,11.912,11.912,0,0,0,2.183.957,7.044,7.044,0,0,1,2.3,1.228,2.712,2.712,0,0,1,.784,2.109,3.562,3.562,0,0,1-.616,2.116,3.731,3.731,0,0,1-1.645,1.288,5.839,5.839,0,0,1-2.243.427,10.105,10.105,0,0,1-3.055-.451l-.035-.011Zm19.853-4.21,2.725-6.185a.872.872,0,0,0,.069-.349V87.02h4v.334l-.677.032a1.807,1.807,0,0,0-.461.19,2.356,2.356,0,0,0-.6.447.826.826,0,0,0-.268.581c0,.175.006.35.019.525s.03.369.051.553a3.4,3.4,0,0,1,.035.346l.524,6.957a1.106,1.106,0,0,0,.228.538,2.223,2.223,0,0,0,.483.483,1.118,1.118,0,0,0,.385.2l.745.069v.333h-5.431v-.334l.051,0a2.326,2.326,0,0,0,.774-.181,1.687,1.687,0,0,0,.625-.45,1.042,1.042,0,0,0,.249-.7c0-.4-.044-.836-.073-1.235l-.572-7.39-3.807,8.721-3.177-7.991-.581,5.71c-.018.164-.038.328-.06.492-.026.216-.049.433-.067.651-.012.142-.022.287-.022.43a1.942,1.942,0,0,0,.474,1.438,2.264,2.264,0,0,0,1.419.51l.051,0v.334h-4.276v-.33l.046-.007a1.951,1.951,0,0,0,.853-.4,3.286,3.286,0,0,0,.76-.8,1.94,1.94,0,0,0,.346-.861l.674-6.334a10.2,10.2,0,0,0,.073-1.156,1.009,1.009,0,0,0-.216-.584,2.157,2.157,0,0,0-.548-.525,1.145,1.145,0,0,0-.56-.226c-.221-.014-.449-.03-.671-.03h-.055v-.338h3.646l2.816,7.051Zm11.908-1.863a5.237,5.237,0,0,0,.631.041,7.7,7.7,0,0,0,1.328-.073,1.972,1.972,0,0,0,.81-.4,3.9,3.9,0,0,0,.809-.82,1.716,1.716,0,0,0,.277-1v-.054h.333v5.361h-.333v-.054a4.416,4.416,0,0,0-.106-1.05,1.946,1.946,0,0,0-.806-1.111,2.254,2.254,0,0,0-1.328-.467h-1.615v4.524a1.129,1.129,0,0,0,.4.779,1.321,1.321,0,0,0,.954.388,3.458,3.458,0,0,0,1.005-.186,11.117,11.117,0,0,0,1.183-.456,8.625,8.625,0,0,0,.816-.4c.342-.2.687-.4,1.012-.623a7.4,7.4,0,0,0,.728-.565,4.8,4.8,0,0,0,.544-.553,5.262,5.262,0,0,0,.441-.627l.022-.035.292.071-.02.056c-.212.589-.4,1.187-.549,1.792a18.289,18.289,0,0,0-.356,1.82l-.007.047h-10.014v-.338h.056a1.573,1.573,0,0,0,.65-.17,1.832,1.832,0,0,0,.6-.438.841.841,0,0,0,.234-.56V88.282a.714.714,0,0,0-.159-.342,1.984,1.984,0,0,0-.371-.4.672.672,0,0,0-.348-.169l-.451-.019V87.02h9.463v.054c.01.386.014.777.033,1.164,0,.19.025.388.042.579.036.4.076.807.117,1.211l.006.06h-.322l-.014-.036a3.006,3.006,0,0,0-.649-1,5.531,5.531,0,0,0-1.026-.857,5.971,5.971,0,0,0-1.207-.6,3.394,3.394,0,0,0-1.163-.235h-.793a1.1,1.1,0,0,0-.431.065,1.573,1.573,0,0,0-.361.29,2.075,2.075,0,0,0-.283.3.512.512,0,0,0-.076.292v3.9Zm8.882,5.073V88.589a1.269,1.269,0,0,0-.309-.779c-.106-.136-.324-.393-.519-.406l-.656-.051V87.02h4.98c.172,0,.342-.006.515-.013s.354-.017.53-.017a5,5,0,0,1,2,.435,6.031,6.031,0,0,1,1.781,1.193,5.8,5.8,0,0,1,1.265,1.825,5.465,5.465,0,0,1,.476,2.243,6.031,6.031,0,0,1-.812,3.1,5.967,5.967,0,0,1-2.094,2.153,5.061,5.061,0,0,1-2.616.769c-.393,0-.794-.024-1.187-.047s-.774-.047-1.157-.047h-3.6v-.331l.049-.006a3.4,3.4,0,0,0,.656-.155,1.146,1.146,0,0,0,.456-.357.875.875,0,0,0,.248-.484Zm16.136,1.333h-4.91v-.338h.055a2.657,2.657,0,0,0,.515-.046,1.231,1.231,0,0,0,.5-.329.824.824,0,0,0,.3-.486V88.4a1.244,1.244,0,0,0-.316-.606c-.118-.146-.333-.387-.538-.407-.1-.009-.205-.017-.308-.017s-.179-.007-.268-.014l-.052,0V87.02h4.917v.338h-.056a3.357,3.357,0,0,0-.509.046,1.051,1.051,0,0,0-.489.3.756.756,0,0,0-.269.51v8.8a1.284,1.284,0,0,0,.194.632,1.353,1.353,0,0,0,.491.5,1.583,1.583,0,0,0,.69.121h.055Zm4.752-10.217a4.8,4.8,0,0,0-.684,1.693,12.283,12.283,0,0,0-.24,2.637,7.817,7.817,0,0,0,.415,2.691,4.868,4.868,0,0,0,1.042,1.744,4.059,4.059,0,0,0,1.3.907,3.3,3.3,0,0,0,1.239.271,4.885,4.885,0,0,0,2.664-.812,5.71,5.71,0,0,0,1.986-2.129l.024-.045.325.138-.029.052a6.082,6.082,0,0,1-2.251,2.37,6.019,6.019,0,0,1-3.1.829,5.209,5.209,0,0,1-2.156-.463,5.8,5.8,0,0,1-1.825-1.293,6.066,6.066,0,0,1-1.239-1.922,5.916,5.916,0,0,1,0-4.509,6.137,6.137,0,0,1,1.236-1.918,5.839,5.839,0,0,1,1.805-1.285,5.2,5.2,0,0,1,2.176-.463,9.89,9.89,0,0,1,1.423.135,6.793,6.793,0,0,0,1.072.094,6.216,6.216,0,0,0,2.032-.3l.076-.026v.076a10.452,10.452,0,0,0,.636,3.811l.021.052-.283.1-.022-.043a7.4,7.4,0,0,0-.908-1.326,7.54,7.54,0,0,0-1.226-1.162,5.767,5.767,0,0,0-1.429-.787,4.385,4.385,0,0,0-1.545-.282,3.686,3.686,0,0,0-1.463.271,2.531,2.531,0,0,0-1.071.9Zm16.362,5.989h-4.164l-.5,1.179a3.69,3.69,0,0,0-.38,1.255,1.773,1.773,0,0,0,.274.985,1.071,1.071,0,0,0,.445.4,2.937,2.937,0,0,0,.784.071h.055v.338h-4.21V98.28l.052,0a1.559,1.559,0,0,0,.749-.194,5.2,5.2,0,0,0,.73-.684,7.443,7.443,0,0,0,.631-.819,4.355,4.355,0,0,0,.4-.731l3.918-9.086h.15L-1330.9,96a9.127,9.127,0,0,0,.711,1.372,2.49,2.49,0,0,0,.67.771,1.647,1.647,0,0,0,.3.107,2.493,2.493,0,0,0,.464.029h.055v.338h-5.722v-.338h.055a4.758,4.758,0,0,0,.621-.03.837.837,0,0,0,.369-.142,1.5,1.5,0,0,0,.333-.362,1.757,1.757,0,0,0,.3-.907,4.018,4.018,0,0,0-.414-1.255Zm5.98,4.226V98.22l.052,0a2.266,2.266,0,0,0,1.211-.494,1.258,1.258,0,0,0,.542-.993V85.951a1.48,1.48,0,0,0-.266-.885,1.2,1.2,0,0,0-.713-.484l-.689-.17v-.386h6.443v.4h-.056a3.057,3.057,0,0,0-1.621.353,1.406,1.406,0,0,0-.511,1.231V96.193a3.149,3.149,0,0,0,.193,1.211,1.178,1.178,0,0,0,.579.617,2.451,2.451,0,0,0,1.045.194,6.459,6.459,0,0,0,2.2-.488,14.081,14.081,0,0,0,2.45-1.212,8.447,8.447,0,0,0,1.756-1.369c.357-.389.707-.788,1.028-1.2l.025-.032.406.133-.02.052a22.548,22.548,0,0,0-1.243,4.472l-.007.047Zm-123.4-.483a5.1,5.1,0,0,1-1.3-.821,6.948,6.948,0,0,1-1.223-1.337c0,.468.006.949.051,1.413a.341.341,0,0,0,.068.214.88.88,0,0,0,.238.141,8.569,8.569,0,0,0,1.158.275,8.488,8.488,0,0,0,1.011.114Zm4.59-.826a3.663,3.663,0,0,0,1.036-1.283,4.094,4.094,0,0,0,.462-1.87,2.977,2.977,0,0,0-.963-2.416,9.634,9.634,0,0,0-2.889-1.468,14.847,14.847,0,0,1-2.809-1.219,1.977,1.977,0,0,1-.895-1.809,3.378,3.378,0,0,1,1.072-2.433,3.223,3.223,0,0,0-1.2,1.109,3.111,3.111,0,0,0-.574,1.728,2.884,2.884,0,0,0,.5,1.72,3.7,3.7,0,0,0,1.249,1.109,16.538,16.538,0,0,0,2.025.895c.7.256,1.421.522,2.1.83a3.342,3.342,0,0,1,1.2.968,2.756,2.756,0,0,1,.54,1.772,3.776,3.776,0,0,1-.843,2.369Zm.632-11.263-.37-1.64h-.414c-.118,0-.239-.009-.356-.021-.144-.014-.286-.034-.428-.057l-.168-.026a3.121,3.121,0,0,1,.917.691A7.543,7.543,0,0,1-1445.859,86.041Zm17.317,1.358h-1.7a2.96,2.96,0,0,1,.839,1.119A5.4,5.4,0,0,1-1428.542,87.4Zm-5.457,0h-2.474l1.081.9v.24l-.149.071,3.013,9.411.239-.716a.925.925,0,0,0,.073-.32,1.222,1.222,0,0,0-.058-.369l-2.365-7.327a3.07,3.07,0,0,1-.176-.8.9.9,0,0,1,.3-.606l.521-.48Zm-5.419,0h-2.547l1.1.92v.228l-.146.076,3,9.393.24-.684a.894.894,0,0,0,.085-.332,3.267,3.267,0,0,0-.148-.544l-2.229-6.974a3.678,3.678,0,0,1-.2-1.045.608.608,0,0,1,.079-.32,1.44,1.44,0,0,1,.232-.271l.54-.448Zm16.015,0h-2.015l.722.707v.208l-.217.152v8.878a.984.984,0,0,1-.159.608,2.094,2.094,0,0,1-.342.32h2.1a4.96,4.96,0,0,1-.492-.418.765.765,0,0,1-.2-.557V88.052l.6-.649Zm14.006,10.954a3.94,3.94,0,0,1-.97-.625,5.691,5.691,0,0,1-.939-1.024c0,.355.005.722.038,1.074a.261.261,0,0,0,.05.163.628.628,0,0,0,.181.106,6.187,6.187,0,0,0,.906.219,6.532,6.532,0,0,0,.736.087Zm3.712-.7a2.876,2.876,0,0,0,.736-.948,3.23,3.23,0,0,0,.36-1.467,2.347,2.347,0,0,0-.748-1.892,7.565,7.565,0,0,0-2.262-1.154,11.664,11.664,0,0,1-2.2-.958,1.575,1.575,0,0,1-.7-1.433,2.656,2.656,0,0,1,.8-1.877,2.556,2.556,0,0,0-.874.84,2.411,2.411,0,0,0-.449,1.35,2.262,2.262,0,0,0,.389,1.348,2.887,2.887,0,0,0,.973.871,12.275,12.275,0,0,0,1.586.7c.545.2,1.11.413,1.638.655a2.705,2.705,0,0,1,.942.764,2.2,2.2,0,0,1,.423,1.4,2.969,2.969,0,0,1-.606,1.8Zm.4-8.858-.27-1.218h-.314c-.093,0-.19-.009-.282-.017-.111-.01-.223-.027-.334-.044l-.068-.011a2.507,2.507,0,0,1,.667.514,6.431,6.431,0,0,1,.6.776Zm18.638-1.438h-1.939l.669,8.4c.035.412.061.83.061,1.243a1.525,1.525,0,0,1-.829,1.272h2.613a4.713,4.713,0,0,1-.442-.325,1.449,1.449,0,0,1-.383-.517,2.173,2.173,0,0,1-.174-.765l-.558-6.973c-.028-.342-.073-.735-.073-1.078a.878.878,0,0,1,.133-.5,1.573,1.573,0,0,1,.407-.4l.517-.366Zm-8.6,0h-1.464a2.782,2.782,0,0,1,.588.487,2.351,2.351,0,0,1,.48.755l3.024,7.637.463-1.133-3.091-7.746Zm-2.734,10.92h1.108c0-.375-.014-.75-.035-1.125a2.834,2.834,0,0,1-.464.644,2.532,2.532,0,0,1-.608.481Zm18.277-10.919h-2.289l.764.68v.211l-.251.165v8.649a1.113,1.113,0,0,1-.21.7,2.6,2.6,0,0,1-.614.511h2.519a2.558,2.558,0,0,1-.608-.517,1.037,1.037,0,0,1-.273-.62V88.032l.963-.675Zm3.21,5.579V91.781a4.811,4.811,0,0,1-.9.593A4.094,4.094,0,0,1-1376.485,92.937Zm-.422,5.34h2.646a13.2,13.2,0,0,1,.985-2.17,6.822,6.822,0,0,1-.988.828,10.454,10.454,0,0,1-1.49.869,9.965,9.965,0,0,1-1.151.472Zm2.436-10.919h-1.891a7.6,7.6,0,0,1,1.233.671,4.159,4.159,0,0,1,1,.892l-.345-1.563Zm10.312.575a4.335,4.335,0,0,1,1.118,1.975,11.489,11.489,0,0,1,.335,2.918,11.756,11.756,0,0,1-.182,2.234,5.954,5.954,0,0,1-.446,1.477,3.768,3.768,0,0,1-.579.881c-.1.109-.2.219-.3.326A4.917,4.917,0,0,0-1363.1,96.7a6.329,6.329,0,0,0,.991-1.792,6.167,6.167,0,0,0,.37-2.112,6.542,6.542,0,0,0-.187-1.554,6.641,6.641,0,0,0-.518-1.414,4.979,4.979,0,0,0-.836-1.192,3.629,3.629,0,0,0-.879-.7Zm-4.622.346v8.75a1.064,1.064,0,0,0,.576,1.049,2.977,2.977,0,0,0,1.323.294h.448a2.787,2.787,0,0,0,2.205-1.068,4.336,4.336,0,0,0,.892-1.852,10.958,10.958,0,0,0,.292-2.616,8.347,8.347,0,0,0-.85-4.049,3.183,3.183,0,0,0-2.989-1.471,4.5,4.5,0,0,0-.914.093,1.726,1.726,0,0,0-.712.319.674.674,0,0,0-.272.55Zm-2.471,10h2.348c-.142-.126-.284-.255-.416-.39a1.209,1.209,0,0,1-.269-.409,1.96,1.96,0,0,1-.082-.644v-8.82c0-.18.178-.328.317-.425a3.485,3.485,0,0,1,.393-.231h-2.207a5.527,5.527,0,0,1,.812.663l.017.016v.214l-.238.117v8.9a.844.844,0,0,1-.162.53,2.733,2.733,0,0,1-.514.479Zm14.8-10.919h-2.047l.733.71v.209l-.221.152v8.916a.963.963,0,0,1-.161.608,2.1,2.1,0,0,1-.346.322h2.137a4.976,4.976,0,0,1-.5-.418.76.76,0,0,1-.207-.56V88.009l.612-.651Zm6.418.625a5.475,5.475,0,0,0-1.807,1.885,5.667,5.667,0,0,0-.832,2.941,5.258,5.258,0,0,0,.418,2.093,6.121,6.121,0,0,0,2.537,2.885,4.078,4.078,0,0,0,1.151.459,5.536,5.536,0,0,1-1.613-1.214,6.012,6.012,0,0,1-1.21-1.952,6.374,6.374,0,0,1-.425-2.3,7.858,7.858,0,0,1,.236-1.857,7.077,7.077,0,0,1,.708-1.814,5.225,5.225,0,0,1,.836-1.122Zm6.343-.528h-1.542a6.441,6.441,0,0,1,2.076,1.584Zm10.621,10.822h2.746a3.026,3.026,0,0,1-.474-.453,4.23,4.23,0,0,1-.459-.668c-.154-.28-.289-.573-.414-.867l-3.384-8.193-.318.663c-.031.076-.063.152-.1.228-.009.019-.029.059-.033.074a.989.989,0,0,0,.063.161c.038.09.079.18.114.271l2.529,6.087a3.924,3.924,0,0,1,.371,1.313,1.685,1.685,0,0,1-.211.836,2,2,0,0,1-.433.545Zm-7.123,0h1.092a4.955,4.955,0,0,1-.059-.639,4.607,4.607,0,0,1,.06-.684,7.022,7.022,0,0,1-1.093,1.259v.063Zm6.239-4.6h-3.55l-.166.4h3.878l-.163-.4Zm-1.718-4.2-1.687,3.891h3.3Zm16.269,8.736h3.267a11.481,11.481,0,0,1,.91-2.312,11.545,11.545,0,0,1-1.162.861,11.967,11.967,0,0,1-1.494.836c-.494.231-1,.433-1.521.616Zm-6.9,0h2.98a2.855,2.855,0,0,1-.664-.5,1.293,1.293,0,0,1-.318-.563,3.209,3.209,0,0,1-.065-.732V85.2l.952-.774h-2.737l1.1.852v.33l-.043.011a.49.49,0,0,0-.38.541V96.787a1.632,1.632,0,0,1-.252.893,1.506,1.506,0,0,1-.57.535Zm-94.178.065-.354-3.733.39-.063.013.048a7.569,7.569,0,0,0,.749,1.739,5.736,5.736,0,0,0,1.24,1.529,2.309,2.309,0,0,0,1.523.612,2.692,2.692,0,0,0,1.358-.332,2.3,2.3,0,0,0,.9-.941,3.077,3.077,0,0,0,.32-1.445,1.5,1.5,0,0,0-.684-1.363,12,12,0,0,0-2.193-1,8.054,8.054,0,0,1-2.283-1.206,2.371,2.371,0,0,1-.793-1.926,2.777,2.777,0,0,1,.3-1.289,2.877,2.877,0,0,1,.816-.97,3.647,3.647,0,0,1,1.154-.6,4.243,4.243,0,0,1,1.293-.2c.323,0,.662.03.984.056.272.024.581.059.854.059a5.5,5.5,0,0,0,1.125-.114l.065-.014,0,.063c.024.489.073.98.125,1.467.063.562.129,1.123.2,1.683l.005.041-.3.114-.022-.045a16.808,16.808,0,0,0-.841-1.528,3.946,3.946,0,0,0-.938-1.011,2.081,2.081,0,0,0-1.289-.439,2.439,2.439,0,0,0-1.061.221,1.718,1.718,0,0,0-.722.633,1.7,1.7,0,0,0-.262.932,1.5,1.5,0,0,0,.653,1.369,11.917,11.917,0,0,0,2.183.957,7.046,7.046,0,0,1,2.3,1.228,2.713,2.713,0,0,1,.782,2.109,3.561,3.561,0,0,1-.616,2.116,3.731,3.731,0,0,1-1.645,1.288,5.838,5.838,0,0,1-2.243.427,10.106,10.106,0,0,1-3.056-.451l-.035-.011Zm2.162.076a3.937,3.937,0,0,1-.971-.624,5.7,5.7,0,0,1-.939-1.024c0,.355.005.722.038,1.074a.246.246,0,0,0,.049.163.636.636,0,0,0,.181.106,6.2,6.2,0,0,0,.906.219,6.516,6.516,0,0,0,.735.087Zm3.712-.7a2.875,2.875,0,0,0,.735-.947,3.232,3.232,0,0,0,.36-1.467,2.347,2.347,0,0,0-.748-1.892,7.57,7.57,0,0,0-2.262-1.154,11.667,11.667,0,0,1-2.2-.958,1.575,1.575,0,0,1-.7-1.433,2.656,2.656,0,0,1,.8-1.877,2.556,2.556,0,0,0-.874.84,2.41,2.41,0,0,0-.449,1.35,2.262,2.262,0,0,0,.389,1.348,2.886,2.886,0,0,0,.973.871,12.252,12.252,0,0,0,1.587.7c.545.2,1.11.413,1.638.655a2.707,2.707,0,0,1,.942.764,2.2,2.2,0,0,1,.424,1.4,2.969,2.969,0,0,1-.606,1.8Zm.4-8.858-.27-1.218h-.316c-.094,0-.19-.009-.282-.017-.111-.01-.223-.027-.334-.044l-.067-.011a2.5,2.5,0,0,1,.667.514A6.432,6.432,0,0,1-1414.2,88.794Z" transform="translate(1454.35 -56.453)" fill="#707070" fill-rule="evenodd"/>
    <path id="Trazado_19" data-name="Trazado 19" d="M1571.85,27.61h6.9v6.823h-6.9V27.61Z" transform="translate(-1512.092 -26.56)" fill="#b2b2b2" fill-rule="evenodd"/>
    <path id="Trazado_20" data-name="Trazado 20" d="M1930.79,27.61h6.9v6.823h-6.9V27.61Z" transform="translate(-1857.386 -26.56)" fill="#b2b2b2" fill-rule="evenodd"/>
    <path id="Trazado_21" data-name="Trazado 21" d="M1571.85,368.8h6.9v6.823h-6.9V368.8Z" transform="translate(-1512.092 -354.779)" fill="#b2b2b2" fill-rule="evenodd"/>
    <path id="Trazado_22" data-name="Trazado 22" d="M1930.79,368.8h6.9v6.823h-6.9V368.8Z" transform="translate(-1857.386 -354.779)" fill="#b2b2b2" fill-rule="evenodd"/>
    <path id="Trazado_23" data-name="Trazado 23" d="M1611.29,0h6.9V6.823h-6.9V0Z" transform="translate(-1550.032)" fill="#707070" fill-rule="evenodd"/>
    <path id="Trazado_24" data-name="Trazado 24" d="M1970.23,0h6.9V6.823h-6.9V0Z" transform="translate(-1895.326)" fill="#707070" fill-rule="evenodd"/>
    <path id="Trazado_25" data-name="Trazado 25" d="M1611.29,341.19h6.9v6.823h-6.9V341.19Z" transform="translate(-1550.032 -328.219)" fill="#707070" fill-rule="evenodd"/>
    <path id="Trazado_26" data-name="Trazado 26" d="M1970.23,341.19h6.9v6.823h-6.9V341.19Z" transform="translate(-1895.326 -328.219)" fill="#707070" fill-rule="evenodd"/>
  </g>
</svg>
