<svg id="Camada_x0020_1" xmlns="http://www.w3.org/2000/svg" width="268.096" height="55.104" viewBox="0 0 268.096 55.104">
  <g id="_723104376">
    <path id="Trazado_27" data-name="Trazado 27" d="M108.726,45.318h4.234c1.16,0,2.784.7,2.784,2.03,0,1.392-1.624,1.74-2.784,1.74h-4.234Zm0-5.858h4.234c1.8,0,2.32,1.16,2.32,1.8,0,.87-.58,1.566-2.32,1.566h-4.234Zm4.292-2.494H106V51.756h7.019c3.074,0,5.568-1.044,5.568-4.35a3.616,3.616,0,0,0-2.378-3.306,2.915,2.915,0,0,0,1.914-2.842C118.123,38.241,115.919,36.965,113.019,36.965Zm19.2,14.791h3.016l-6.612-14.791h-3.016l-6.612,14.791h3.016l1.276-2.784h7.773l1.16,2.784Zm-2.32-5.394h-5.51l2.726-6.322Zm8.063,5.394h2.784V39.46h4.7V36.907H133.262V39.46h4.7v12.3Zm11.949,0V36.965h-2.784V51.756h2.784ZM164.294,39.4c-1.1-2.262-3.48-2.958-5.8-2.958-2.726.058-5.742,1.276-5.742,4.292,0,3.306,2.784,4.118,5.8,4.466,1.972.232,3.422.754,3.422,2.146,0,1.624-1.624,2.2-3.422,2.2a4.211,4.211,0,0,1-4.176-2.378l-2.32,1.218c1.1,2.668,3.422,3.654,6.438,3.654,3.306,0,6.206-1.45,6.206-4.7,0-3.538-2.842-4.35-5.974-4.7-1.8-.232-3.306-.58-3.306-1.856,0-1.1.986-1.972,3.074-1.972a4.256,4.256,0,0,1,3.48,1.624l2.32-1.044Zm6.438,12.355h2.784V39.46h4.7V36.907H166.092V39.46h4.7v12.3Zm20.882,0h3.016l-6.612-14.791H185l-6.612,14.791h3.016l1.276-2.784h7.773Zm-2.32-5.394h-5.51l2.726-6.322Zm23.55,5.394h2.784V36.965h-3.19l-4.64,6.322-4.64-6.322h-3.19V51.7h2.784V41.026l4.756,6.438h.522l4.814-6.438V51.756Zm16.473-2.784h-8.295V45.608h8V43h-8V39.576h8.295V36.907H218.238V51.7h11.079Zm15.023,2.784h2.784V36.965h-3.19l-4.64,6.322-4.64-6.322h-3.19V51.7h2.784V41.026l4.7,6.438h.522l4.814-6.438V51.756ZM256.7,36.675c-5.1,0-7.6,3.886-7.6,7.773s2.436,7.657,7.6,7.657c5.22,0,7.541-3.828,7.6-7.657,0-3.886-2.552-7.773-7.6-7.773Zm0,2.494c3.48,0,4.872,2.784,4.814,5.278-.058,2.436-1.334,5.046-4.814,5.046s-4.814-2.61-4.872-5.046,1.392-5.278,4.872-5.278Zm22.738,12.413-4.466-5.046a4.383,4.383,0,0,0,3.712-4.64c0-2.552-1.856-4.872-5.336-4.93h-7.019V51.756h2.784v-4.93h2.668l4.292,4.93h3.306v-.174Zm-6.09-12.065a2.33,2.33,0,0,1,2.552,2.378,2.3,2.3,0,0,1-2.552,2.378h-4.234V39.518h4.234Zm10.035,12.239V36.965h-2.784V51.756Zm14.327,0h3.016l-6.612-14.791h-3.016l-6.612,14.791H287.5l1.276-2.784h7.773l1.16,2.784Zm-2.378-5.394h-5.452L292.6,40.04Zm6.9-9.4V51.756h10.383V49.2h-7.6V36.965h-2.784ZM106,30.7V19.39h1.392v4.872h6.438V19.39h1.392V30.7h-1.392V25.6h-6.438v5.1Zm11.543-5.626a6.592,6.592,0,0,1,.7-3.016,5.4,5.4,0,0,1,2.03-2.088,5.924,5.924,0,0,1,3.074-.812,5.516,5.516,0,0,1,2.03.348,6.16,6.16,0,0,1,1.624.87,6.4,6.4,0,0,1,1.16,1.334,8.06,8.06,0,0,1,.7,1.624,5.363,5.363,0,0,1,.232,1.682v.058a5.988,5.988,0,0,1-.232,1.74,6.417,6.417,0,0,1-.7,1.566,7.92,7.92,0,0,1-1.1,1.334,6.161,6.161,0,0,1-1.624.87,6.438,6.438,0,0,1-4.176,0,6.16,6.16,0,0,1-1.624-.87,7.962,7.962,0,0,1-1.16-1.276,9.252,9.252,0,0,1-.7-1.566,6.12,6.12,0,0,1-.232-1.8Zm1.45,0a4.944,4.944,0,0,0,.174,1.334,4.546,4.546,0,0,0,.522,1.218,3.551,3.551,0,0,0,.87.986,4.172,4.172,0,0,0,1.218.7,4.445,4.445,0,0,0,1.566.232,4.2,4.2,0,0,0,1.914-.406,3,3,0,0,0,1.334-1.044,4.322,4.322,0,0,0,.754-1.45,5.032,5.032,0,0,0,.29-1.624v-.058a4.523,4.523,0,0,0-.174-1.276,5.505,5.505,0,0,0-.522-1.218,4.9,4.9,0,0,0-.87-1.044,4.173,4.173,0,0,0-1.218-.7,4.429,4.429,0,0,0-1.566-.29,5.109,5.109,0,0,0-1.914.348,3.56,3.56,0,0,0-1.392.986,4.455,4.455,0,0,0-.812,1.45,10.052,10.052,0,0,0-.174,1.856Zm11.485,3.248,1.16-.7a3.774,3.774,0,0,0,1.508,1.508,4.633,4.633,0,0,0,2.088.522,4.39,4.39,0,0,0,.87-.058,3.325,3.325,0,0,0,.812-.232,3.125,3.125,0,0,0,.754-.406,1.645,1.645,0,0,0,.522-.58,1.937,1.937,0,0,0,.174-.87,1.606,1.606,0,0,0-.174-.754,1.369,1.369,0,0,0-.464-.522,2.277,2.277,0,0,0-.754-.348,4.833,4.833,0,0,0-.87-.232c-.29-.058-.58-.116-.986-.174-.348-.058-.638-.116-.928-.174q-.348-.087-.87-.174a4.159,4.159,0,0,1-.812-.29,4.326,4.326,0,0,1-.7-.406,2.215,2.215,0,0,1-.522-.522,1.955,1.955,0,0,1-.348-.7,4.478,4.478,0,0,1-.116-.87V22.29a2.894,2.894,0,0,1,.29-1.218,2.792,2.792,0,0,1,.7-.928,5.508,5.508,0,0,1,.986-.58,5.179,5.179,0,0,1,1.16-.348,6.757,6.757,0,0,1,2.494,0,8.481,8.481,0,0,1,1.16.29,2.427,2.427,0,0,1,1.044.638,5,5,0,0,1,.812,1.044l-1.1.638a2.56,2.56,0,0,0-1.276-1.044,5.079,5.079,0,0,0-1.856-.406,6.392,6.392,0,0,0-1.044.116,2.563,2.563,0,0,0-.928.348,2.321,2.321,0,0,0-.7.58,1.563,1.563,0,0,0-.29.87,1.385,1.385,0,0,0,.116.522.78.78,0,0,0,.348.406,1.263,1.263,0,0,0,.464.29,2.078,2.078,0,0,0,.638.232c.29.058.522.116.754.174s.464.058.754.116a4.283,4.283,0,0,0,.7.116,7.566,7.566,0,0,0,.754.174,2.005,2.005,0,0,0,.7.174,4.4,4.4,0,0,1,.638.232,5.368,5.368,0,0,0,.58.29c.174.116.29.29.464.406a3.187,3.187,0,0,1,.406.522c.058.174.174.406.232.638a3.308,3.308,0,0,1,.058.754,3.222,3.222,0,0,1-.29,1.334,2.7,2.7,0,0,1-1.74,1.566,4.815,4.815,0,0,1-1.218.348,9.521,9.521,0,0,1-1.334.116,5.1,5.1,0,0,1-1.914-.29,5.335,5.335,0,0,1-1.624-.812,2.135,2.135,0,0,1-1.276-1.276Zm11.6,2.378V19.39h5.1a5.128,5.128,0,0,1,1.914.406,3,3,0,0,1,1.276,1.1,4.388,4.388,0,0,1,.638,1.508,4.549,4.549,0,0,1,.116.812,4.551,4.551,0,0,1-.116.812,4.922,4.922,0,0,1-.638,1.508,3,3,0,0,1-1.276,1.1,4.2,4.2,0,0,1-1.914.406h-3.77V30.7h-1.334Zm1.392-4.988h3.77a2.354,2.354,0,0,0,1.1-.232,2.911,2.911,0,0,0,.812-.58,3.7,3.7,0,0,0,.464-.812,2.562,2.562,0,0,0,0-1.856,3.7,3.7,0,0,0-.464-.812,2.251,2.251,0,0,0-.812-.58,2.354,2.354,0,0,0-1.1-.232h-3.77ZM153.1,30.7V19.39h1.392V30.7H153.1Zm3.19-10.035V19.39H165.4v1.276h-3.828V30.7h-1.392V20.666H156.29ZM164.874,30.7l5.046-11.311h1.566L176.533,30.7h-1.508l-1.1-2.494h-6.438l-1.1,2.494Zm3.19-3.77H173.4l-2.668-6.09-2.668,6.09Zm10.325,3.77V19.39h1.392v9.977h6.148V30.7h-7.541Z" transform="translate(-44.515 -8.021)" fill="#707070"/>
    <path id="Trazado_28" data-name="Trazado 28" d="M0,33.6H37.587a5.416,5.416,0,0,1,4.292,2.088H27.552a4.692,4.692,0,0,0-3.538-1.566H0V33.6Zm42.691,3.422a5.079,5.079,0,0,1,.406,1.856v.29H28.77V38.82a4.125,4.125,0,0,0-.406-1.856H42.691Zm.406,3.712v2.378H28.77V40.735H43.1Zm0,4.234v3.712H28.77V44.969H43.1Zm-29.756,6.09a4.81,4.81,0,0,0-3.016-1.334H0V49.2H21.288v1.856Zm1.45,3.712v-.406a4.486,4.486,0,0,0-.464-1.972h6.961v2.378Z" transform="translate(0 -14.111)" fill="#707070"/>
    <path id="Trazado_29" data-name="Trazado 29" d="M31.764,60.5h1.856a5.669,5.669,0,0,1,4,1.856H31.764ZM25.5,70.013V67.345H39.015v2.668Zm9.339,5.046h-3.48v-3.19h7.483A4.226,4.226,0,0,1,34.839,75.059Zm-3.19-11.427h6.845a5.316,5.316,0,0,1,.522,2.146v.232H31.648Z" transform="translate(-10.709 -25.407)" fill="#707070"/>
    <path id="Trazado_30" data-name="Trazado 30" d="M21.288,64.9h-6.5v-3.19h6.5ZM0,47.669H14.269v1.856H0Zm0-3.19H14.269V46.1H0ZM0,42.1H14.269v1.1H0Zm0-2.2H14.269v1.218H0ZM0,37.75H14.269v1.508H0ZM0,36.3H14.269v.754H0Z" transform="translate(0 -15.244)" fill="#707070"/>
    <path id="Trazado_31" data-name="Trazado 31" d="M32.69,48.681a6.09,6.09,0,1,1,6.09-6.09A6.09,6.09,0,0,1,32.69,48.681Z" transform="translate(-11.171 -15.328)" fill="#707070"/>
    <path id="Trazado_32" data-name="Trazado 32" d="M24.8,20.769H39.127v1.856H24.8Zm0-3.19H39.127v1.566H24.8Zm0-2.378H39.127v1.1H24.8Zm0-2.2H39.127v1.218H24.8Zm0-2.146H39.127v1.508H24.8Zm0-1.45H39.127v.754H24.8Z" transform="translate(-10.415 -3.948)" fill="#707070"/>
    <path id="Trazado_33" data-name="Trazado 33" d="M90.48,0H89.9V55.1h.58Z" transform="translate(-37.754)" fill="#707070"/>
  </g>
</svg>
 