<svg xmlns="http://www.w3.org/2000/svg" width="80.784" height="77.585" viewBox="0 0 80.784 77.585">
  <path id="plus-circle" d="M42.392,2C20.084,2,2,19.368,2,40.793S20.084,79.585,42.392,79.585,82.784,62.217,82.784,40.793,64.7,2,42.392,2Zm0,69.827c-17.846,0-32.314-13.894-32.314-31.034S24.546,9.759,42.392,9.759,74.706,23.653,74.706,40.793,60.238,71.827,42.392,71.827ZM58.549,36.913H46.431V25.276a4.043,4.043,0,0,0-8.078,0V36.913H26.235a3.882,3.882,0,1,0,0,7.759H38.353V56.31a4.043,4.043,0,0,0,8.078,0V44.672H58.549a3.882,3.882,0,1,0,0-7.759Z" transform="translate(-2 -2)" fill="#2b6edd"/>
</svg>
