<svg xmlns="http://www.w3.org/2000/svg" width="152.062" height="52.215" viewBox="0 0 152.062 52.215">
  <g id="betty-ford-clinic-44194" transform="translate(-5.22 -38.86)">
    <path id="Trazado_14" data-name="Trazado 14" d="M9.4,87.727c.782-.024,1.417-.049,1.883-.049,1.76,0,3.2.049,4.326.049,4.523,0,6.869-1.711,6.869-4.669,0-2.518-1.98-4.351-5.378-4.6,2.493-.611,3.862-2.126,3.862-3.935,0-2.493-2.078-3.912-6.087-3.912-1.051,0-2.273.073-3.667.073-.513,0-1.124,0-1.809-.05v.611c1.956.1,2.151.343,2.151,1.662V85.159c0,1.564-.22,1.956-2.151,1.956v.612Zm4.523-9.534V71.4c.293-.024.587-.024.856-.024,2.567,0,3.74.977,3.74,3.276,0,2.322-1.344,3.569-3.886,3.569C14.415,78.218,14.17,78.218,13.926,78.193Zm0,5.672V78.952c.343-.024.66-.024.978-.024,3.423,0,5.085,1.369,5.085,4.278,0,2.249-1.54,3.716-4.009,3.716-1.931,0-2.053-.733-2.053-2.371v-.684Zm10.462,3.862c1.1-.024,2.2-.049,3.3-.049,1.2,0,4.253.024,9.191.15a21.7,21.7,0,0,1,1.051-3.744l-.586-.171c-.978,2.616-2.176,3.031-5.036,3.031-2.787,0-3.423-.22-3.423-2.445V79.391h2.249c2.273,0,3.056.2,3.056,2.2v.2h.636c-.1-1.174-.171-2.273-.171-3.276a21.484,21.484,0,0,1,.147-2.249h-.66c-.024,1.589-.611,2.053-2.1,2.053H28.884V71.47h2.567c2.909,0,4.156.635,4.278,2.933h.513V70.615c-1.442.024-3.789.073-7.088.073-1.638,0-3.227-.024-4.766-.05v.611c1.858.1,2.126.343,2.126,1.662V85.158c0,1.564-.317,1.956-2.126,1.956v.613h0Zm18.578,0c1.516-.049,2.64-.073,3.349-.073,1.174,0,2.4,0,3.667.073v-.636h-.318c-1.98,0-2-.684-2-3.056V71.667h2.665c2.249,0,3.031.1,3.031,1.931v.171h.611l.2-3.765h-.513c-.049.513-1.124.684-3.226.684h-8.36c-1.32,0-2.078-.024-2.445-.66L39.105,70l-.27,3.912.611.024c.269-1.98,1.149-2.3,3.349-2.3h2.518V85.161c0,1.54-.293,1.956-2.029,1.956h-.317v.61Zm16.3,0c1.516-.049,2.64-.073,3.349-.073,1.174,0,2.4,0,3.667.073v-.636h-.318c-1.98,0-2-.684-2-3.056V71.667h2.665c2.249,0,3.031.1,3.031,1.931v.171h.611l.2-3.765h-.513c-.049.513-1.124.684-3.226.684h-8.36c-1.32,0-2.078-.024-2.445-.66L55.41,70l-.27,3.912.611.024c.269-1.98,1.149-2.3,3.349-2.3h2.518V85.161c0,1.54-.293,1.956-2.029,1.956h-.317v.61h0Z" transform="translate(-4.183 -31.145)" fill="#6f7272" fill-rule="evenodd"/>
    <path id="Trazado_15" data-name="Trazado 15" d="M75.28,87.778c1.467-.049,2.689-.073,3.692-.073,1.05,0,2.151.024,3.276.073v-.636h-.318c-2,0-2-.709-2-3.2V79.075l4.059-5.549c.9-1.247,1.516-2.1,2.542-2.2v-.66a21.251,21.251,0,0,1-2.346.073c-.954,0-1.76-.024-2.469-.05v.587c1.271,0,1.784.147,1.784.807a2.893,2.893,0,0,1-.709,1.417l-3.4,4.619-3.642-5.06a2.294,2.294,0,0,1-.611-1.149c0-.44.464-.611,1.417-.636v-.562c-1.124.049-2.322.073-3.545.073-1.124,0-2.082-.024-2.84-.049v.611h.073a2.994,2.994,0,0,1,2.645,1.613l4.669,6.478v5.671c0,1.564-.049,2.053-2,2.053h-.27v.614Zm22.929-3.838V79.467h3.2c1.516,0,2.1.562,2.1,2.078v.293h.635c-.1-1.1-.17-2.2-.17-3.276a20.377,20.377,0,0,1,.147-2.282h-.661c-.023,1.573-.586,2.086-2.126,2.086H98.209V71.5h1.809c3.4,0,4.889.343,5.035,2.942h.514v-3.8c-2.3.049-4.449.1-6.5.1q-3.227,0-5.353-.073v.611c1.809.073,2.126.343,2.126,1.666V85.212c0,1.564-.294,1.956-2.1,1.956v.611q1.771-.074,3.545-.073c1.1,0,2.126.024,3.031.073v-.636h-.1c-1.906,0-2-.587-2-2.518v-.684h0Zm18.8,4.135a8.09,8.09,0,0,0,6.918-3.524,9.105,9.105,0,0,0,1.711-5.329,8.677,8.677,0,0,0-2.763-6.4,8.31,8.31,0,0,0-6.111-2.42,8.108,8.108,0,0,0-6.038,2.566,9.037,9.037,0,0,0,.27,12.737,8.44,8.44,0,0,0,6.013,2.375Zm-6.16-9.342c0-4.546,2.469-7.48,5.623-7.48A6.071,6.071,0,0,1,121.8,74.87a10.952,10.952,0,0,1,1.2,5.06c0,4.3-2.445,7.284-5.646,7.284a5.414,5.414,0,0,1-4.719-2.689,10.1,10.1,0,0,1-1.784-5.793Zm21.536-.023V71.523a10.129,10.129,0,0,1,1.174-.073c2.86,0,4.326,1.271,4.326,3.716,0,2.224-1.588,3.691-4.375,3.691a4.36,4.36,0,0,1-1.125-.147Zm-4.473,9.068q1.783-.074,3.569-.073,1.65,0,3.007.073v-.636h-.1c-1.979,0-2.029-.636-2.029-2.885V79.613a15.03,15.03,0,0,0,1.613.073h.66c2.47,4.229,4.279,6.894,5.476,8.067.757-.049,1.467-.049,2.1-.049.562,0,1.124,0,1.76.024v-.611H143.9c-1.784,0-3.764-2.762-6.991-7.9,2.224-.856,3.4-2.371,3.4-4.278,0-2.836-2.346-4.278-6.967-4.278-1.174,0-2.347.073-3.545.073-.611,0-1.222-.024-1.882-.05V71.3c1.858.1,2.1.343,2.1,1.662V85.21c0,1.564-.293,1.956-2.1,1.956v.612Zm21.365-4.009V71.548c.416-.024.807-.05,1.2-.05,5.256,0,8.312,3.056,8.312,7.969,0,4.546-2.664,7.431-7.04,7.431C149.494,86.9,149.274,86.018,149.274,83.769Zm-4.425,3.4v.611q1.907-.073,3.373-.073c.807,0,1.711.073,2.713.073,6.722,0,10.462-3.4,10.462-8.629a7.964,7.964,0,0,0-3.056-6.307c-2.053-1.662-4.522-2.1-7.822-2.1-1.222,0-2.42.049-3.642.049a18.063,18.063,0,0,1-2.029-.1V71.3c1.858.1,2.1.343,2.1,1.662V85.212c0,1.564-.293,1.956-2.1,1.956ZM70.062,100.325l-.31-.07a2.756,2.756,0,0,1-2.88,2.343,3.842,3.842,0,0,1-3.431-2.272,5.54,5.54,0,0,1-.65-2.64,4.405,4.405,0,0,1,1.595-3.5,3.7,3.7,0,0,1,2.4-.8,2.647,2.647,0,0,1,2.951,2.258h.282q-.033-1-.141-1.991a8.187,8.187,0,0,0-3.2-.706,5.214,5.214,0,0,0-3.727,1.37,5.029,5.029,0,0,0-1.651,3.754,4.956,4.956,0,0,0,5.238,5.057,7.222,7.222,0,0,0,3.218-.751l.311-2.047Zm1.044,2.639c.861-.028,1.807-.056,2.809-.056.579,0,2.047.014,4.446.043l.523-2.16-.324-.07c-.437,1.6-1.243,1.722-3.05,1.722-1.411,0-1.751-.324-1.751-1.524V94.947c0-1.13.043-1.455,1.228-1.5V93.1c-.226.015-.762.043-1.595.043-.72,0-1.454-.015-2.217-.043v.353c1.073.056,1.229.2,1.229.96v6.747c0,1.116-.014,1.454-1.158,1.454h-.141v.353Zm8.47,0q1.03-.043,2.061-.043.952,0,1.737.043V102.6h-.057c-1.144,0-1.171-.367-1.171-1.666V94.947c0-1.13.042-1.455,1.228-1.5V93.1c-.635.043-1.257.043-1.891.043q-1.037,0-1.905-.043v.353c1.073.056,1.214.2,1.214.96v7.073c0,.9-.17,1.129-1.214,1.129v.353Zm4.616,0q.875-.039,1.751-.043c.537,0,1.214.015,2.005.043V102.6c-1.581,0-1.722-.564-1.722-2.305V94.963l7.327,8.16h.31V95.641c0-1.625.028-2.134,1.341-2.2v-.353c-.523.015-1.143.029-1.849.029-.664,0-1.243-.015-1.722-.029v.381h.141c1.285,0,1.482.607,1.482,2.318v4.95l-6.874-7.621c-.524.028-.918.028-1.214.028-.2,0-.607,0-1.2-.015v.367c1.243.043,1.637.438,1.637,1.513v5.272c0,1.685,0,2.334-1.369,2.334h-.043v.355h0Zm11.66,0q1.03-.043,2.061-.043.952,0,1.736.043V102.6h-.056c-1.143,0-1.172-.367-1.172-1.666V94.947c0-1.13.043-1.455,1.228-1.5V93.1c-.635.043-1.256.043-1.891.043q-1.037,0-1.905-.043v.353c1.072.056,1.214.2,1.214.96v7.073c0,.9-.17,1.129-1.214,1.129Zm13.82-2.639-.31-.07a2.756,2.756,0,0,1-2.88,2.343,3.842,3.842,0,0,1-3.431-2.272,5.539,5.539,0,0,1-.649-2.64,4.405,4.405,0,0,1,1.595-3.5,3.7,3.7,0,0,1,2.4-.8,2.646,2.646,0,0,1,2.951,2.258h.282q-.032-1-.141-1.991a8.187,8.187,0,0,0-3.2-.706,5.212,5.212,0,0,0-3.726,1.37,5.029,5.029,0,0,0-1.651,3.754,4.955,4.955,0,0,0,5.237,5.057,7.225,7.225,0,0,0,3.218-.751l.31-2.047Zm-99.536,13.56c.182-.006.33-.012.437-.012.41,0,.744.012,1.005.012,1.051,0,1.6-.4,1.6-1.085,0-.585-.46-1.011-1.25-1.069.58-.142.9-.494.9-.914,0-.58-.483-.91-1.414-.91-.244,0-.529.017-.852.017-.119,0-.261,0-.42-.011v.142c.455.023.5.08.5.386v2.845c0,.364-.051.454-.5.454v.144h0Zm1.051-2.216V110.09c.068-.006.137-.006.2-.006.6,0,.87.228.87.762s-.312.83-.9.83a1.539,1.539,0,0,1-.165-.006Zm0,1.318v-1.142c.079-.005.153-.005.227-.005.8,0,1.182.317,1.182.994a.84.84,0,0,1-.932.864c-.449,0-.477-.17-.477-.551v-.159Zm12.375.9c.256-.006.511-.012.767-.012.278,0,.989.006,2.137.036a4.974,4.974,0,0,1,.244-.87l-.137-.04c-.227.608-.506.705-1.171.705-.648,0-.8-.051-.8-.568v-1.187h.523c.528,0,.71.045.71.511v.045h.147q-.035-.379-.039-.761a5.015,5.015,0,0,1,.034-.524h-.154c-.005.37-.142.477-.489.477h-.733v-1.591h.6c.676,0,.966.148.994.682h.119v-.881c-.335.006-.88.017-1.648.017-.381,0-.75-.006-1.108-.011v.142c.432.023.494.08.494.386v2.845c0,.364-.074.454-.494.454v.143Zm15.37.069,1.232-3.1c.2-.5.273-.777.608-.777v-.154c-.159.012-.307.012-.449.012-.386,0-.636,0-.744-.012v.154c.318.011.437.063.437.255a2.319,2.319,0,0,1-.17.618l-.852,2.207-1.023-2.678a.969.969,0,0,1-.069-.243c0-.119.12-.153.386-.164v-.148c-.233.017-.443.017-.625.017-.295,0-.585,0-.88-.011v.137c.426.017.506.237.676.675l1.261,3.217h.212Zm11.99-.069c.256-.006.511-.012.767-.012.278,0,.989.006,2.137.036a4.974,4.974,0,0,1,.244-.87l-.137-.04c-.227.608-.505.705-1.171.705-.648,0-.8-.051-.8-.568v-1.187h.523c.528,0,.71.045.71.511v.045h.148q-.035-.379-.04-.761a5.014,5.014,0,0,1,.034-.524h-.153c-.006.37-.143.477-.489.477h-.733v-1.591h.6c.676,0,.965.148.994.682h.119v-.881c-.336.006-.881.017-1.648.017-.381,0-.75-.006-1.108-.011v.142c.432.023.494.08.494.386v2.845c0,.364-.074.454-.494.454v.143h0Zm14.489-2.108v-1.671a2.349,2.349,0,0,1,.272-.017c.664,0,1.005.3,1.005.864,0,.517-.369.857-1.017.857a.9.9,0,0,1-.261-.033Zm-1.04,2.108c.267-.012.545-.017.83-.017.256,0,.489.005.7.017v-.148h-.023c-.46,0-.471-.148-.471-.67v-1.078a3.468,3.468,0,0,0,.375.017h.153a10.416,10.416,0,0,0,1.272,1.874c.177-.011.341-.011.489-.011.13,0,.261,0,.409.005v-.142h-.017c-.415,0-.875-.642-1.624-1.835a1.064,1.064,0,0,0,.79-.994c0-.659-.545-.995-1.619-.995-.273,0-.545.017-.824.017-.143,0-.284-.006-.437-.011v.142c.432.023.489.08.489.386v2.845c0,.364-.068.454-.489.454Zm13.813,0c.346-.012.727-.023,1.131-.023.233,0,.824.006,1.79.017l.21-.869-.13-.029c-.176.642-.5.693-1.227.693-.568,0-.7-.13-.7-.613v-2.4c0-.454.017-.585.494-.6v-.142c-.09.005-.307.017-.642.017-.29,0-.585-.006-.892-.017v.142c.432.023.495.08.495.386v2.716c0,.449-.006.584-.466.584h-.057v.142h0Zm13.637,0c.341-.012.624-.017.857-.017s.5.005.761.017v-.148h-.074c-.465,0-.465-.164-.465-.744v-1.131l.943-1.289c.21-.29.352-.489.591-.511v-.154a4.827,4.827,0,0,1-.545.017c-.222,0-.41-.006-.574-.011v.136c.3,0,.415.034.415.188a.666.666,0,0,1-.164.33l-.79,1.073-.846-1.176a.537.537,0,0,1-.143-.268c0-.1.109-.142.33-.148v-.13q-.741.032-1.483.006v.142h.017a.7.7,0,0,1,.614.376l1.085,1.505v1.317c0,.364-.011.477-.466.477h-.062v.143h0Zm14.262,0c.267-.012.545-.017.83-.017.256,0,.489.005.7.017v-.148h-.023c-.46,0-.471-.148-.471-.67v-1.1h2.271v1.323c0,.358-.085.454-.449.454h-.034v.143q.758-.034,1.518,0v-.143c-.416-.005-.484-.113-.484-.459V110.6c0-.4.012-.523.484-.545v-.142c-.392.011-.642.017-.762.017-.277,0-.533-.006-.755-.017v.142c.465.034.483.051.483.386V111.7h-2.271v-1.045c0-.454.017-.585.494-.6v-.142c-.2.011-.46.017-.762.017-.267,0-.523,0-.767-.017v.142c.431.023.489.08.489.386v2.845c0,.364-.068.454-.489.454v.144h0Zm14.711,0c.267-.012.545-.017.829-.017.257,0,.489.005.7.017v-.148H122.3c-.46,0-.472-.148-.472-.67v-2.409c0-.454.017-.585.494-.6v-.142c-.256.017-.505.017-.761.017q-.417,0-.767-.017v.142c.431.023.489.08.489.386v2.845c0,.364-.068.454-.489.454Zm11.824,0c.347-.012.728-.023,1.131-.023.233,0,.824.006,1.79.017l.21-.869-.13-.029c-.177.642-.5.693-1.228.693-.567,0-.7-.13-.7-.613v-2.4c0-.454.017-.585.494-.6v-.142c-.09.005-.307.017-.642.017-.29,0-.585-.006-.891-.017v.142c.431.023.494.08.494.386v2.716c0,.449-.006.584-.466.584h-.057v.142h0Zm13.313,0c.346-.012.727-.023,1.131-.023.233,0,.824.006,1.79.017l.21-.869-.13-.029c-.177.642-.5.693-1.227.693-.568,0-.705-.13-.705-.613v-2.4c0-.454.017-.585.494-.6v-.142c-.09.005-.307.017-.642.017-.29,0-.585-.006-.891-.017v.142c.432.023.494.08.494.386v2.716c0,.449-.006.584-.466.584h-.056v.142Zm13.465-.137a1.727,1.727,0,0,0,.847.205,1.2,1.2,0,0,0,1.318-1.182,1.019,1.019,0,0,0-.3-.739,2.577,2.577,0,0,0-.665-.426c-.477-.256-.738-.459-.738-.925a.642.642,0,0,1,.67-.648.683.683,0,0,1,.71.608h.13l-.085-.716a3.95,3.95,0,0,0-.688-.079,1.083,1.083,0,0,0-1.2,1.1c0,.54.278.8.818,1.119.5.3.841.443.841.921a.725.725,0,0,1-.773.75c-.386,0-.71-.29-.864-.83h-.137l.115.84Zm-88.612,7.78-.082-.018a.729.729,0,0,1-.761.619,1.015,1.015,0,0,1-.906-.6,1.466,1.466,0,0,1-.171-.7,1.16,1.16,0,0,1,.421-.924.977.977,0,0,1,.634-.213.7.7,0,0,1,.779.6h.075q-.009-.263-.037-.525a2.153,2.153,0,0,0-.847-.187,1.381,1.381,0,0,0-.984.362,1.329,1.329,0,0,0-.436.992,1.309,1.309,0,0,0,1.384,1.336,1.894,1.894,0,0,0,.85-.2l.081-.542Zm.134.7a8.158,8.158,0,0,1,.885,0v-.093c-.243,0-.343-.045-.343-.186a.95.95,0,0,1,.059-.262l.145-.437h.857l.186.564a.729.729,0,0,1,.044.19c0,.1-.078.123-.261.13v.093c.205-.008.373-.011.5-.011.175,0,.332,0,.47.011v-.1c-.22,0-.283-.067-.354-.257l-.843-2.335-.074,0a.826.826,0,0,1-.205.161v.045a1.463,1.463,0,0,1-.123.518l-.522,1.466c-.1.272-.171.41-.392.41h-.026v.093h0Zm.8-1.131.347-1.1.395,1.1h-.742Zm1.831,1.131c.228-.008.477-.016.743-.016.153,0,.541,0,1.175.011l.137-.57-.086-.018c-.116.421-.328.454-.805.454-.373,0-.463-.085-.463-.4v-1.577c0-.3.011-.384.324-.4v-.093q-.21.013-.421.011c-.19,0-.384,0-.585-.011v.093c.284.016.324.053.324.254v1.783c0,.295,0,.383-.306.383h-.037Zm2.238,0q.5-.02,1,0v-.1h-.016c-.3,0-.31-.1-.31-.441v-1.58c0-.3.011-.384.325-.4v-.093c-.168.011-.332.011-.5.011s-.35,0-.5-.011v.093c.284.016.321.053.321.254v1.868c0,.238-.044.3-.321.3Zm1.947-.585v-.683h.489c.231,0,.321.086.321.317v.045h.1q-.024-.249-.026-.5a3.143,3.143,0,0,1,.023-.347h-.1c0,.239-.09.317-.324.317h-.477v-1.048h.276c.518,0,.745.053.768.45h.078v-.58c-.35.008-.678.016-.992.016s-.6,0-.817-.011v.093c.276.011.324.052.324.254v1.871c0,.238-.045.3-.321.3v.093q.5-.021,1,0v-.1h-.015c-.29,0-.306-.09-.306-.384v-.1Zm2.868.63a1.233,1.233,0,0,0,1.055-.537,1.389,1.389,0,0,0,.261-.813,1.325,1.325,0,0,0-.421-.977,1.271,1.271,0,0,0-.932-.369,1.239,1.239,0,0,0-.922.391,1.378,1.378,0,0,0,.041,1.944A1.293,1.293,0,0,0,80.6,122.271Zm-.94-1.425c0-.694.377-1.141.857-1.141a.927.927,0,0,1,.813.552,1.674,1.674,0,0,1,.183.772c0,.657-.373,1.111-.862,1.111a.825.825,0,0,1-.719-.41A1.545,1.545,0,0,1,79.659,120.846Zm3.285,0v-1.1a1.464,1.464,0,0,1,.179-.011c.437,0,.66.194.66.566,0,.34-.242.563-.668.563a.6.6,0,0,1-.171-.021Zm-.682,1.384q.5-.02,1,0v-.1h-.016c-.3,0-.309-.1-.309-.441v-.708a2.151,2.151,0,0,0,.246.012h.1a6.775,6.775,0,0,0,.836,1.23c.116-.007.223-.007.321-.007s.171,0,.269,0v-.093H84.7c-.272,0-.575-.421-1.067-1.2a.7.7,0,0,0,.518-.652c0-.433-.358-.653-1.064-.653-.179,0-.357.011-.541.011q-.144,0-.287-.008v.093c.283.016.321.053.321.254v1.868c0,.238-.044.3-.321.3v.093h0Zm2.525,0q.5-.024.992,0v-.1c-.417,0-.455-.15-.455-.609v-1.408l1.936,2.156h.083v-1.977c0-.429.007-.563.354-.582v-.093c-.138,0-.3.008-.489.008s-.329,0-.455-.008v.1h.037c.339,0,.391.16.391.611v1.308l-1.817-2.012c-.137.007-.243.007-.321.007-.052,0-.161,0-.317,0v.1c.329.012.433.116.433.4v1.393c0,.445,0,.617-.362.617h-.011v.091Zm3.08,0q.5-.021,1,0v-.1h-.016c-.3,0-.309-.1-.309-.441v-1.58c0-.3.011-.384.324-.4v-.093c-.168.011-.332.011-.5.011-.183,0-.35,0-.5-.011v.093c.283.016.32.053.32.254v1.868c0,.238-.044.3-.32.3Zm1.092,0a8.181,8.181,0,0,1,.884,0v-.093c-.242,0-.343-.045-.343-.186a.986.986,0,0,1,.059-.262l.146-.437h.857l.187.564a.767.767,0,0,1,.044.19c0,.1-.078.123-.261.13v.093c.2-.008.373-.011.5-.011.175,0,.332,0,.47.011v-.1c-.22,0-.283-.067-.354-.257l-.844-2.335-.074,0a.826.826,0,0,1-.205.161v.045a1.463,1.463,0,0,1-.123.518l-.523,1.466c-.1.272-.171.41-.391.41h-.026v.093Zm.8-1.131L90.1,120l.395,1.1h-.742Zm2.835-1.376c.3,0,.309.1.309.424v1.071c0,.724.276,1.052.951,1.052s.984-.321.984-1.015v-1.044c0-.35.026-.481.287-.5v-.086c-.127,0-.261,0-.4,0s-.29,0-.432,0v.09c.332,0,.35.1.35.507v1.048a1.187,1.187,0,0,1-.075.515.636.636,0,0,1-.582.336.656.656,0,0,1-.63-.377,1.709,1.709,0,0,1-.1-.686v-.888c0-.343.008-.458.283-.458h.011v-.086c-.161,0-.32.008-.477.008-.137,0-.3-.008-.481-.008v.094h0Zm2.793,2.305a.243.243,0,0,0,.246.246.241.241,0,0,0,.242-.246.244.244,0,1,0-.488,0Zm1,.112a1.136,1.136,0,0,0,.557.134.788.788,0,0,0,.864-.777.671.671,0,0,0-.194-.485,1.683,1.683,0,0,0-.437-.279c-.313-.168-.485-.3-.485-.608a.422.422,0,0,1,.441-.424.448.448,0,0,1,.465.4h.087l-.056-.47a2.675,2.675,0,0,0-.452-.052.71.71,0,0,0-.79.724c0,.354.183.525.537.735.328.194.552.29.552.6a.476.476,0,0,1-.508.492c-.253,0-.466-.19-.566-.544h-.09l.075.553Zm1.9-.112a.243.243,0,0,0,.246.246.241.241,0,0,0,.243-.246.237.237,0,0,0-.243-.243.24.24,0,0,0-.246.243Zm.761.2a8.158,8.158,0,0,1,.884,0v-.093c-.242,0-.343-.045-.343-.186a.986.986,0,0,1,.059-.262l.146-.437h.857l.186.564a.738.738,0,0,1,.045.19c0,.1-.078.123-.261.13v.093c.2-.008.373-.011.5-.011.175,0,.331,0,.47.011v-.1c-.22,0-.283-.067-.354-.257l-.844-2.335-.074,0a.826.826,0,0,1-.205.161v.045a1.463,1.463,0,0,1-.123.518l-.523,1.466c-.1.272-.171.41-.392.41h-.025v.093h0Zm.8-1.131.347-1.1.395,1.1h-.742ZM111.9,92.989a1.145,1.145,0,0,1,.545.143,1.028,1.028,0,0,1,.414.41,1.113,1.113,0,0,1,0,1.107,1.033,1.033,0,0,1-.41.41,1.109,1.109,0,0,1-1.1,0,1.032,1.032,0,0,1-.411-.41,1.107,1.107,0,0,1,0-1.107,1.019,1.019,0,0,1,.415-.41A1.145,1.145,0,0,1,111.9,92.989Zm0,.184a.939.939,0,0,0-.455.12.861.861,0,0,0-.345.343.939.939,0,0,0-.125.464.925.925,0,0,0,.123.458.874.874,0,0,0,.344.343.915.915,0,0,0,.918,0,.871.871,0,0,0,.343-.343.926.926,0,0,0,0-.922.869.869,0,0,0-.346-.343.944.944,0,0,0-.455-.12Zm-.485,1.537V93.518h.41a1.024,1.024,0,0,1,.3.032.286.286,0,0,1,.15.116.306.306,0,0,1,.056.175.318.318,0,0,1-.093.228.368.368,0,0,1-.247.109.324.324,0,0,1,.1.063,1.355,1.355,0,0,1,.177.236l.145.233h-.236l-.106-.188a.943.943,0,0,0-.2-.277.249.249,0,0,0-.155-.042H111.6v.506h-.192Zm.191-.67h.234a.38.38,0,0,0,.229-.05.171.171,0,0,0,.031-.227.176.176,0,0,0-.081-.062.588.588,0,0,0-.194-.02H111.6Z" transform="translate(-4.279 -31.196)" fill="#6f7272" fill-rule="evenodd"/>
  </g>
</svg>
 