<svg xmlns="http://www.w3.org/2000/svg" width="259.13" height="52.215" viewBox="0 0 259.13 52.215">
  <g id="children-s-hospital" transform="translate(-2.833 -77.529)">
    <path id="Trazado_35" data-name="Trazado 35" d="M42.852,91.1c4.621,10.923,2.6,25.121-6.133,33.356A18.127,18.127,0,0,1,17.4,128.488c-9.158-3.78-14.031-13.359-14.535-22.851C2.441,94.967,6.725,84.718,16.3,79.424c6.05-3.277,14.45-2.184,19.66,2.352A24.78,24.78,0,0,1,42.852,91.1Z" transform="translate(0 0)" fill="#707070" fill-rule="evenodd"/>
    <path id="Trazado_36" data-name="Trazado 36" d="M39.254,89.02c5.125,8.99,4.453,22.18-1.934,30.5-4.116,5.711-11.089,8.906-18.063,7.055a19,19,0,0,1-10.838-8.483c-4.705-7.141-5.294-17.309-2.1-25.29,2.521-6.974,9.241-13.779,17.056-13.779C30.18,78.686,35.978,83.307,39.254,89.02Z" transform="translate(0.573 0.569)" fill="#fff" fill-rule="evenodd"/>
    <path id="Trazado_37" data-name="Trazado 37" d="M39.461,92.262c3.7,9.83,2.017,22.011-5.965,29.237A15.047,15.047,0,0,1,18.2,124.942C9.131,121.5,4.93,111.755,5.1,102.344,5.266,93.187,9.971,83.777,18.876,80.5a15.087,15.087,0,0,1,15.878,4.368,21.668,21.668,0,0,1,4.706,7.393Z" transform="translate(0.87 0.856)" fill="#707070" fill-rule="evenodd"/>
    <path id="Trazado_38" data-name="Trazado 38" d="M19.417,81.916c1.428,1.345,2.942,2.436,4.2,3.78-.589.169-1.345.169-1.765.589a15.448,15.448,0,0,0,2.1,1.428c.252-.5-.084-1.093,0-1.763a47.583,47.583,0,0,1,4.536,2.519v.252l-2.184.841a43.563,43.563,0,0,1-7.561-5.294A23.5,23.5,0,0,0,19,81.748l.42.168Z" transform="translate(6.127 1.625)" fill="#fff" fill-rule="evenodd"/>
    <path id="Trazado_39" data-name="Trazado 39" d="M26.155,84.352l3.193,3.36c-3.109-1.177-5.629-3.7-8.234-5.965q2.56,1.226,5.042,2.605Zm-6.72,1.68c.168.168.589.335.252.672.421.42,1.26.252,1.345,1.008a5.64,5.64,0,0,1,2.521,1.093c.841.839,1.932,1.26,2.688,2.1a.434.434,0,0,1-.252.589c-.084.337-.252.756-.672.839-.5-.168-.839.169-1.176.252-.42,0-.672-.337-1.093-.084a.37.37,0,0,0-.084.42c.335.168.924,0,1.008.587.169.5-.756.672-.42,1.008.841,0,1.008-1.763,1.848-.756a12.833,12.833,0,0,1,.924,2.521c1.177-.252,1.008,1.345,1.428,2.017,0,.169-.587.252-.335.5.335.084.672-.168.924,0,1.008,1.176,2.856,1.763,3.109,3.445a11.511,11.511,0,0,1-1.6,8.485c-2.017,2.688-3.108,6.723-6.722,7.731a15.956,15.956,0,0,1-7.141.587,3.366,3.366,0,0,1-.5-2.688l.42-.335a10.6,10.6,0,0,0,6.3-2.186c.335-.168.587.084.672.422a.208.208,0,0,0,.335.084c.5-.422.084-1.01,0-1.428.169-.084.337-.168.421,0,.168.252.168.587.5.67a.619.619,0,0,0,.42-.5c.084-.841-1.176-.42-1.093-1.26a21.922,21.922,0,0,1,3.864-7.646l-.084-.084c-1.345.838-1.848,2.35-2.688,3.611a25.757,25.757,0,0,1-1.765,3.025c-.5-2.183,1.345-3.78,2.521-5.459a9.606,9.606,0,0,1,4.116-3.866,1.076,1.076,0,0,0-1.008.084,19.773,19.773,0,0,0-6.385,7.309c-.337,1.01-.252,2.186-.924,3.108a8.678,8.678,0,0,1-3.276-1.932,1.79,1.79,0,0,1,0-1.934c.924-1.68,2.856-1.932,4.2-2.938l.252-.758a4.794,4.794,0,0,0,3.36-2.438c0-.755.42-1.763-.42-2.184-.5-.168-1.177.084-1.765,0-.169-.168,0-.587-.337-.5-.756.587-1.68,1.008-2.1,1.932-1.093-.168-2.017.672-3.025.924-.756-.084-1.763.169-2.1-.587a2.544,2.544,0,0,1,1.26-2.6,10.256,10.256,0,0,1,3.193-.589c.169.169.084.756.5.5,0-.5-.169-1.26.42-1.6a14.255,14.255,0,0,0,3.781-.589v-.084c-1.093-.169-2.269.335-3.362.168-.672-.589-1.345.5-2.1.42-.5,0-1.091,0-1.26-.5-.084-.42.084-.924-.337-1.177-.084-.587,1.008-.335.672-1.008a1.392,1.392,0,0,1-1.008,0c-.084-.252.084-.589-.252-.672-.252-.084-.589-.084-.756-.337l.5-1.6c.5-.084.168.672.589.756a3.2,3.2,0,0,1,1.176-.924c.084-.084-.084-.252-.169-.252-.42.084-1.008.084-1.176-.42,0-.589,1.093-.252.841-.841a2.544,2.544,0,0,0-1.345.421,2.172,2.172,0,0,1-.421-1.765.5.5,0,0,1,.589.5c.756-.168,1.345-.756,2.1-.589,0,.924.924,0,1.428.337a3.868,3.868,0,0,1,2.017.839c.252-.084,0-.337,0-.5-.587-.839-1.765-.756-2.688-.924-.337-.839-1.6.5-1.512-.756a1.678,1.678,0,0,1,1.26.168c.169-.168,0-.42-.169-.589-.587-.5-1.176,0-1.848-.084a.558.558,0,0,0-.084.5c.084.252.42.168.42.42a3.2,3.2,0,0,1-2.184-.337c-.924-.924.587-1.512.672-2.269a1.388,1.388,0,0,1,1.01-.924c1.014-.165,1.35.76,1.77,1.432Z" transform="translate(4.85 1.624)" fill="#fff" fill-rule="evenodd"/>
    <path id="Trazado_40" data-name="Trazado 40" d="M20.972,85.84a43.13,43.13,0,0,0,4.705,3.277c.084.084.084.168.084.337-.589.169-1.093-.42-1.68-.672A49.193,49.193,0,0,1,18.2,84.329a.452.452,0,0,1,.252-.337C19.375,84.581,20.048,85.252,20.972,85.84Z" transform="translate(5.917 2.489)" fill="#fff" fill-rule="evenodd"/>
    <path id="Trazado_41" data-name="Trazado 41" d="M21.131,88.336c.084,0,.084.168,0,.168-.169.084-.5.168-.337.42.5.672,1.176.672,1.765,1.008v.084a2.675,2.675,0,0,1-2.605-1.428,2.448,2.448,0,0,1-1.512-1.008v-.252a3.971,3.971,0,0,0,2.69,1.008Zm2.94.672a.228.228,0,0,1,.168.337c-1.008.421-1.763-.252-2.519-.672v-.168c.756.251,1.512.755,2.352.5Z" transform="translate(6.01 3.773)" fill="#707070" fill-rule="evenodd"/>
    <path id="Trazado_42" data-name="Trazado 42" d="M30.286,88.658a3.142,3.142,0,0,1-.924,2.6,1.891,1.891,0,0,1-1.344-.168c-.084-.084-.169-.169-.169-.252.337-.084.839.252,1.093-.084-.168-.5-1.428,0-1.26-.672.755-.084.587-1.008,1.176-1.344,0-.252.252-.421.5-.5A.985.985,0,0,1,30.286,88.658Zm-12.855.924a1.14,1.14,0,0,1,.589,1.091c0,.337.084.756-.337.924l.252,1.093a1.141,1.141,0,0,0-.587.924.808.808,0,0,1,.839.589,3.154,3.154,0,0,1-1.008,2.94,3.067,3.067,0,0,1-3.025-.672c-.672-.252-.335-2.269-1.428-1.176-.335-.084-.252-.756-.672-.587-.252.5.756,1.008-.084,1.26-.5-.252-1.345,0-1.6-.756-.672-1.26.42-2.353.589-3.529a2.673,2.673,0,0,1,1.26-2.1,6.892,6.892,0,0,1,1.6-.756l3.611.755Z" transform="translate(2.821 4.124)" fill="#fff" fill-rule="evenodd"/>
    <path id="Trazado_43" data-name="Trazado 43" d="M17.246,90.23c0,.587-.672.42-.672.924-.084.252-.421.42-.589.168-.169-.421.252-.168.42-.337.337-.168.252-1.931.841-.755Zm-5.125,1.093a1.921,1.921,0,0,1-.169,1.176c-.337-.084-.169-.5-.337-.672C11.027,92,11.448,93,10.859,93c.084-.587.252-1.176.337-1.848.169,0,.252-.084.337-.084C11.7,91.238,11.869,91.406,12.121,91.322Zm3.025,0a.4.4,0,0,1-.337.5c-.335-.252-.587.169-.587.42.084.756-.672.169-.756.756-.168.252.169.756-.168.756-.252,0-.169-.252-.337-.42a4.372,4.372,0,0,1,.5-1.345c.756.252.589-1.428,1.512-.672h.168Zm1.091,1.512a.357.357,0,0,1-.335.5c-.252-.169-.756.084-.924-.084,0-.337.5-.252.42-.587l-.252-.169c.335-.252,1.007-.169,1.091.337Zm.841,1.428c0,.168-.252.168-.337.252-.084,0-.252-.084-.168-.252C16.574,94.1,16.909,94.178,17.078,94.263Zm-.084.756c0,.337-.252.756-.672.42-.084-.084-.42-.084-.42-.252C16.322,95.187,16.574,94.935,16.993,95.019Z" transform="translate(3.091 4.736)" fill="#707070" fill-rule="evenodd"/>
    <path id="Trazado_44" data-name="Trazado 44" d="M15.989,95.671l.168.42c1.26.5,2.269,1.6,3.445,2.269.168-.168-.169-.335-.084-.5,1.512.252,2.519-.925,3.864-1.01a5.137,5.137,0,0,1,.756,2.94,2.061,2.061,0,0,1-1.765.673c-1.6.5-3.193,2.183-5.04,1.09-1.345.925-2.352-.755-3.7-.838a.758.758,0,0,0-.252.587c1.26-.084,1.848,1.512,3.108,1.428l.084.168a2.655,2.655,0,0,0-1.176,1.177c.252.252.5.084.672-.084.756-.42,1.428-1.177,2.269-.841l-.337.925c.337.5.841,1.093.589,1.763-.337.422-1.428.841-.924,1.512.841.255.924-1.007,1.68-.922,1.008.5,2.521.252,3.108,1.512.169.5.756,1.512-.252,1.512-1.6.67-3.443.755-5.04,1.345-1.093.42-1.932-.506-2.94-.338-.924-.168-1.848.506-2.772.084a2.44,2.44,0,0,1-1.68-2.1c-1.428-1.848-.839-4.873-.252-6.974a54.925,54.925,0,0,1,1.512-5.292c.589-.756,1.68-1.093,2.184-1.932a7.3,7.3,0,0,0,2.772,1.427Zm11.762.5c.084.924-.756,1.6-1.428,1.932-.5.168-1.093.5-1.6.252-.337-.42-.756-.755-.672-1.26a2.261,2.261,0,0,1,1.176-1.679c.756.168,1.512-.252,2.353-.084Z" transform="translate(2.331 6.436)" fill="#fff" fill-rule="evenodd"/>
    <path id="Trazado_45" data-name="Trazado 45" d="M13.394,101.611c.084,0,0,.084-.084.084h-.084v-.168C13.311,101.527,13.478,101.444,13.394,101.611Z" transform="translate(4.002 9.233)" fill="#255398" fill-rule="evenodd"/>
    <path id="Trazado_46" data-name="Trazado 46" d="M16.139,107.614a2.257,2.257,0,0,1,.252,1.68,6.326,6.326,0,0,1-4.116.587c-.084-.587-.924-.42-.924-1.093-.587-.084-.252-.755-.672-1.007.084-1.177,1.512-.506,2.017-1.345a5.693,5.693,0,0,1,3.443,1.177Zm14.114,2.857a2.249,2.249,0,0,1-1.093.838q-.92-1.06-1.763-2.183c-.084-.252.084-.422.335-.338A3.611,3.611,0,0,1,30.253,110.472Zm-5.125,0c.169.922.589,1.848.672,2.77a13.836,13.836,0,0,1-12.686-1.428c-.252-.335.168-.5.252-.755.756-.335,1.511.252,2.267.252a4.3,4.3,0,0,0,1.765-.5,8.5,8.5,0,0,1,2.94.084l2.436-.084a5.11,5.11,0,0,1,2.1-.673Zm3.612,1.173c0,.255-.337.255-.5.338-.335,0-.587-.59-.924-.59-.252.42.672,1.093-.084,1.26-.335.168-.839.335-1.008-.168-.169-.587-.589-1.26-.337-1.932a5.352,5.352,0,0,1,1.68-.255C27.984,110.807,28.488,111.058,28.74,111.645Z" transform="translate(3.021 11.128)" fill="#fff" fill-rule="evenodd"/>
    <path id="Trazado_47" data-name="Trazado 47" d="M240.111,82.111v19.575a1.317,1.317,0,0,0,.168.673c.5.67,1.512.42,2.183.5.255.168.168.587.085.925l-.168.084-6.636-.084c-.252-.168-.168-.506-.168-.841.5-.335,1.177-.084,1.68-.168l.085-.252.085-17.979a1.3,1.3,0,0,0-.67-.924l-1.6-.084a.627.627,0,0,1-.084-.756l.255-.169a44.428,44.428,0,0,0,4.7-.5h.082Zm-160.973.5v19.238a1.308,1.308,0,0,0,.589,1.093c.587.252,1.26,0,1.848.168a1.459,1.459,0,0,1,.084.841l-.252.168c-4.453,0-8.9,0-13.273.084h-5.8c-.337,0-.252-.587-.168-.925a5.809,5.809,0,0,1,1.344-.168l.084-.168V93.538a2.546,2.546,0,0,0-1.008-1.763c-1.6-1.01-3.612.252-5.04,1.176l-.337.42v8.654a.968.968,0,0,0,.589,1.008,5.967,5.967,0,0,0,1.763.168c.252.252.169.59.084.925l-.252.168-6.47-.084c-.335-.168-.084-.5-.084-.758.5-.252,1.093,0,1.512-.42V84.884c0-1.176-1.512-.756-2.269-.924A.793.793,0,0,1,52,83.2l.672-.084c1.6-.084,3.025-.589,4.453-.672l.084.168v9.158c.252.084.5-.084.756-.337,1.932-1.344,4.873-2.519,7.141-1.008a3.844,3.844,0,0,1,1.345,2.856v8.906a1.1,1.1,0,0,0,.756.839,14.2,14.2,0,0,0,2.688.084c.252-.168.168-.838.168-1.26V92.11a1.093,1.093,0,0,0-.756-.924L67.88,91.1c-.252-.169-.169-.5-.169-.756l.169-.084c1.6-.084,3.193-.337,4.79-.42l.168.168v12.1c0,.337.252.5.337.756l.756.252,2.015-.084c.5-.168.421-1.008.421-1.512V87.152c0-.756.084-2.519-.5-3.025-.5-.42-1.26-.168-1.932-.252a.833.833,0,0,1-.084-.756l.169-.168a43.39,43.39,0,0,0,4.873-.589c.168-.082.251.086.251.253Z" transform="translate(18.911 1.764)" fill="#707070" fill-rule="evenodd"/>
    <path id="Trazado_48" data-name="Trazado 48" d="M56.937,84.312l.168.252L56.853,87a1.17,1.17,0,0,1-.924,0c-.169-.589-.169-1.176-1.008-1.6A9.609,9.609,0,0,0,44.755,87.17c-2.856,2.94-3.277,7.73-1.6,11.342a7.646,7.646,0,0,0,4.874,4.368,9.552,9.552,0,0,0,7.309-.924,4.567,4.567,0,0,0,1.26-2.1.786.786,0,0,1,.756-.084l.169.252a10.847,10.847,0,0,1-.084,2.856c-4.2,2.018-10,3.528-14.367.084a9.2,9.2,0,0,1-2.687-3.025,9.741,9.741,0,0,1-1.26-5.377,10.2,10.2,0,0,1,2.1-6.553c3.193-4.116,8.821-5.292,13.862-4.2l1.846.5Zm117.284-.589c.252.168.084.589.084.839-.5.337-1.177,0-1.763.252V102.29c.085.252.335.252.67.42a14.41,14.41,0,0,0,1.934.084,1.2,1.2,0,0,1,.085.925l-.252.168-7.226-.084a1.174,1.174,0,0,1,0-.925c.5-.168,1.175,0,1.68-.168l.084-.168V93.384H159.6V101.7a1.169,1.169,0,0,0,.841,1.01l1.848.168a3.143,3.143,0,0,1,.085.925l-.252.084h-7.141a1.037,1.037,0,0,1-.168-.841c.252-.335.755-.168,1.177-.252.335,0,.755,0,.67-.5,0-2.857-.084-16.551-.084-16.551-.085-1.345-1.68-.841-2.521-1.093a1.455,1.455,0,0,1-.085-.839l.252-.084h7.058a.967.967,0,0,1,.084.839l-.168.168-1.512.084-.084.084v7.141h9.914V85.573c-.168-.337-.422-.756-.841-.841l-1.848-.084c0-.252-.085-.672.085-.839a15.345,15.345,0,0,1,2.773-.084,21.812,21.812,0,0,1,2.35,0h2.184Zm43.857.589a2.464,2.464,0,0,1,.587,1.344,2.384,2.384,0,0,1-.758,1.6,1.838,1.838,0,0,1-1.848.252,1.858,1.858,0,0,1-.839-3.108,2.081,2.081,0,0,1,2.857-.083ZM138.01,85.319a5.313,5.313,0,0,1-.922,5.209,5.484,5.484,0,0,1-1.177,0v-.084a4.637,4.637,0,0,0,1.01-2.269c-.168-.672-1.01-.169-1.6-.421a2.2,2.2,0,0,1-1.26-1.345,2.072,2.072,0,0,1,.335-1.6,2.04,2.04,0,0,1,2.353-.672A2.181,2.181,0,0,1,138.01,85.319Zm-60.49.168A2.013,2.013,0,0,1,77.1,87.42a1.966,1.966,0,0,1-1.512.5,1.6,1.6,0,0,1-1.512-.841,1.664,1.664,0,0,1-.252-1.511,1.826,1.826,0,0,1,1.093-1.26,1.955,1.955,0,0,1,2.605,1.175ZM197.662,89.94l.252.252a11.037,11.037,0,0,1,0,2.353c-.841.42-.841-.756-1.345-1.177a4.919,4.919,0,0,0-4.7-.335,1.889,1.889,0,0,0-1.093,1.428,1.681,1.681,0,0,0,.5,1.428c2.605,1.6,7.141,1.176,7.731,5.125a4.262,4.262,0,0,1-1.934,4.032,10.277,10.277,0,0,1-8.483.758c-.17-.841-.338-1.512-.506-2.186-.168-.587-.335-.924.252-1.091.758-.252.758.5,1.177,1.008.841,1.345,2.438,1.6,4.033,1.428a3.457,3.457,0,0,0,3.025-2.017.966.966,0,0,0,.085-.839,2.481,2.481,0,0,0-.42-1.093c-1.6-1.093-3.614-1.26-5.378-2.1a3.685,3.685,0,0,1-2.35-3.025,3.915,3.915,0,0,1,1.68-3.36c2.1-1.6,5.121-1.344,7.474-.587Zm-63.851.841c.922,1.176.838,2.688.838,4.116v7.31c.252,1.007,1.512.67,2.27.838a1.459,1.459,0,0,1,.084.841l-.252.168-6.133-.084c-.338-.168-.084-.59-.084-.925.42-.168,1.09.084,1.51-.252.084-1.6,0-9.326,0-9.493a2.38,2.38,0,0,0-.755-1.511c-1.763-1.26-3.95-.084-5.378.924l-.5.42v8.821a1.113,1.113,0,0,0,.5.839c.506.335,1.345.084,1.934.252.252.252.084.59.084.925l-.506.084h-6.3a1.2,1.2,0,0,1-.084-.925,5.683,5.683,0,0,1,1.68-.168l.084-.252V91.87c0-.5-.5-.756-.838-.839a9.068,9.068,0,0,1-1.512-.084c-.168-.168-.084-.5-.084-.756l.168-.168a37.951,37.951,0,0,0,4.536-.42.307.307,0,0,1,.335.335V91.7h.252c2.018-1.6,4.7-3.194,7.309-1.68l.844.758ZM218.5,89.94v11.93a.834.834,0,0,0,.5.673c.5.335,1.26.168,1.848.252.17.252.085.587.085.925l-.252.084-6.551.084c-.335-.084-.168-.506-.168-.758.252-.587,1.09-.168,1.6-.335l.168-.168V91.79a1.089,1.089,0,0,0-.758-.924c-.5-.169-1.6.337-1.512-.587,0-.169.084-.5.338-.421q2.232-.142,4.453-.42c.335-.086.252.166.252.5Zm-71.328.169.168.252c0,.756.085,1.512.085,2.269-.925.587-.841-.756-1.345-1.093-1.093-1.093-2.856-.924-4.2-.589a2.458,2.458,0,0,0-1.6,1.428,1.754,1.754,0,0,0,.5,1.765c1.85.924,3.95,1.176,5.8,2.1a4.019,4.019,0,0,1,1.934,3.78,4.563,4.563,0,0,1-2.521,3.614,10.692,10.692,0,0,1-7.729.335l-.255-.59-.335-2.519c1.01-.756,1.01.839,1.6,1.26,1.345,1.346,3.614,1.176,5.211.589a2.419,2.419,0,0,0,1.68-2.1,1.693,1.693,0,0,0-.5-1.511l-1.011-.589a37.49,37.49,0,0,1-5.123-1.934,3.6,3.6,0,0,1-1.428-3.193,4.243,4.243,0,0,1,2.686-3.36,8.826,8.826,0,0,1,6.388.086ZM95.835,91.872v8.906a4.839,4.839,0,0,1-1.848,1.26,4.02,4.02,0,0,1-4.116-.084c-2.017-1.6-2.269-4.284-1.932-6.806a6.49,6.49,0,0,1,1.344-3.36,4.136,4.136,0,0,1,4.033-1.093,7.7,7.7,0,0,1,2.519,1.177Zm2.605-9.326v19.407a1.242,1.242,0,0,0,.672.924,9.168,9.168,0,0,0,3.025.168l.168-.168V92.039a.983.983,0,0,0-.672-.924,10.229,10.229,0,0,0-1.6-.169.82.82,0,0,1-.084-.756l4.957-.42a20.365,20.365,0,0,0,.084,2.269c.084.169.252,0,.335-.084,1.428-1.008,2.773-2.773,4.705-2.1.252.169.587.421.587.756a10.3,10.3,0,0,1-.756,2.269c-.169.252-.42.168-.672.168a1.883,1.883,0,0,0-1.26-1.008c-1.26-.168-2.184.756-2.94,1.68v8.148a1.2,1.2,0,0,0,.42.925,9.856,9.856,0,0,0,2.184.335c.169.252.084.506,0,.841l-.252.168a59.789,59.789,0,0,0-11.006.42c-.252,0-.42,0-.5-.168v-1.932c-1.932,1.093-4.116,2.438-6.468,1.848-2.438-.587-3.866-3.025-4.2-5.377a11.864,11.864,0,0,1,.337-4.537,7.3,7.3,0,0,1,4.453-4.7,7.05,7.05,0,0,1,5.544.589c.252.084.252,0,.337-.169V84.9a1.217,1.217,0,0,0-.589-.841c-.587-.335-1.26-.084-1.848-.252a1.159,1.159,0,0,1,0-.756l.169-.168a42.462,42.462,0,0,0,4.705-.589c.166,0,.166.089.166.256Z" transform="translate(13.976 1.833)" fill="#707070" fill-rule="evenodd"/>
    <path id="Trazado_49" data-name="Trazado 49" d="M98.7,92.31c0,.252.084.589-.335.589l-5.882,1.512c-.252-.084-.168-.337-.168-.589.168-1.6.672-3.612,2.436-4.284a2.22,2.22,0,0,1,2.269.5A8.814,8.814,0,0,1,98.7,92.31Zm1.765-1.763a4.5,4.5,0,0,1,1.26,2.519c-3.025.924-6.133,1.6-9.241,2.521l-.168.169c.084,2.267.839,4.536,2.94,5.461s4.453.084,6.218-1.01a.613.613,0,0,1,.5.589,2.511,2.511,0,0,1-1.26,1.008c-2.1,1.428-5.543,2.186-7.9.673a6.116,6.116,0,0,1-2.771-3.7c-.756-3.445-.42-7.393,2.771-9.493a6.24,6.24,0,0,1,3.7-.924A5.7,5.7,0,0,1,100.469,90.547Zm63.43-.169c2.186,2.269,2.605,5.881,1.763,8.821a3.841,3.841,0,0,1-2.518,2.436,4.274,4.274,0,0,1-4.453-1.345,10.4,10.4,0,0,1-1.428-7.646,3.768,3.768,0,0,1,2.773-3.193,4.173,4.173,0,0,1,2.855.252l1.008.673Zm4.285,1.932a8.66,8.66,0,0,1-1.763,8.823,8.058,8.058,0,0,1-8.067,1.428,5.979,5.979,0,0,1-3.36-3.194,8.722,8.722,0,0,1,1.093-8.569,7.371,7.371,0,0,1,7.477-2.436A6.468,6.468,0,0,1,168.185,92.31Zm23.021,0c1.09,2.6,1.007,6.133-1.01,8.233a4.636,4.636,0,0,1-4.621,1.01,8.163,8.163,0,0,1-1.512-.672V91.808a4.685,4.685,0,0,1,4.621-1.68,4.622,4.622,0,0,1,2.522,2.183Zm2.435-1.344c1.428,3.108,1.26,7.477-1.177,10a7.129,7.129,0,0,1-6.971,1.932l-1.26-.5h-.168v6.216a1.206,1.206,0,0,0,.838.838,6.678,6.678,0,0,0,2.27.17,1.192,1.192,0,0,1,.084.922l-.252.168h-6.891c-.168-.084-.5,0-.587-.252.085-.335-.084-.922.42-.838.5-.084,1.428.335,1.428-.506V90.63a1.155,1.155,0,0,0-.67-.924c-.506-.252-1.093-.084-1.6-.168a.776.776,0,0,1-.085-.841c1.512-.168,3.193-.252,4.706-.5.42-.084.335.337.335.756a6.268,6.268,0,0,0,0,1.26c1.763-1.176,3.7-2.521,6.049-2.017a5.5,5.5,0,0,1,3.529,2.773Zm22.853,5.125v2.856c-1.01,1.176-2.27,2.186-3.866,2.018a1.653,1.653,0,0,1-.925-.758,2.81,2.81,0,0,1,.338-2.688,10.248,10.248,0,0,1,4.453-2.771ZM205.067,85.758v3.109h3.443a1,1,0,0,1,.084,1.26,1.219,1.219,0,0,1-.252.169h-3.276V99.79a1.775,1.775,0,0,0,.587,1.177,5.577,5.577,0,0,0,3.108.168,4.413,4.413,0,0,1,.841-3.7c1.848-2.1,4.536-3.025,6.891-3.864V90.718a1.488,1.488,0,0,0-.925-1.176,3.772,3.772,0,0,0-3.528.587c-.338,1.008-.422,2.521-1.68,2.856a1.05,1.05,0,0,1-1.01-.421,2.457,2.457,0,0,1,.67-2.436A8.279,8.279,0,0,1,217.5,88.2a2.151,2.151,0,0,1,1.345,1.093,3.605,3.605,0,0,1,.42,2.352V99.2c0,.839.758,1.427,1.515,1.765.085.67-.422,1.26-.673,1.932a3.581,3.581,0,0,1-3.193-1.932l-.252-.59a8.2,8.2,0,0,1-1.512,1.428,4.973,4.973,0,0,1-4.621.925,4.287,4.287,0,0,1-1.683-1.345c-.084.252.086.5-.168.67-1.512.673-3.443,1.428-5.123.59a3.116,3.116,0,0,1-1.177-2.857V90.294H200.7c-.335-.169-.168-.5-.084-.672,1.26-1.345,2.521-2.688,3.866-4.033.17-.083.59-.168.59.169Z" transform="translate(33.454 3.075)" fill="#707070" fill-rule="evenodd"/>
    <path id="Trazado_50" data-name="Trazado 50" d="M40.764,101.219H196.7m9.492,0h41.168" transform="translate(14.606 9.122)" fill="none" stroke="#707070" stroke-miterlimit="2.613" stroke-width="0.714"/>
  </g>
</svg>