<svg xmlns="http://www.w3.org/2000/svg" width="26" height="36" viewBox="0 0 26 36">
  <g id="Grupo_19" data-name="Grupo 19" transform="translate(-154.584 -3.67)">
    <rect id="Rectángulo_26" data-name="Rectángulo 26" width="26" height="36" transform="translate(154.584 3.67)" fill="#fff"/>
    <path id="arrow-up" d="M13.286,7.147,7.615.385A1.131,1.131,0,0,0,7.241.1a.966.966,0,0,0-.862,0A1.131,1.131,0,0,0,6,.385L.334,7.147a1.549,1.549,0,0,0,0,1.92,1.014,1.014,0,0,0,1.611,0L5.675,4.6V21.951A1.258,1.258,0,0,0,6.81,23.3a1.258,1.258,0,0,0,1.134-1.352V4.6l3.731,4.463a1.01,1.01,0,0,0,1.611,0,1.542,1.542,0,0,0,0-1.92Z" transform="translate(179.236 16.86) rotate(90)" fill="#2b6edd"/>
  </g>
</svg>




